<svg width="55" height="39" viewBox="0 0 55 39" fill="none" xmlns="http://www.w3.org/2000/svg">
<path d="M21.787 1.02539C20.8715 0.109863 19.3876 0.109863 18.472 1.02539L1.6615 17.8359C1.60437 17.8931 1.55017 17.9531 1.4989 18.0161C1.48279 18.0352 1.4696 18.0557 1.45349 18.0762C1.42273 18.1172 1.39197 18.1567 1.36267 18.1992C1.34216 18.23 1.32458 18.2622 1.30554 18.293C1.28503 18.3267 1.26453 18.3604 1.24548 18.3955C1.22644 18.4307 1.21033 18.4658 1.19421 18.5024C1.1781 18.5361 1.16199 18.5684 1.14734 18.602C1.13123 18.6401 1.11951 18.6782 1.10632 18.7163C1.0946 18.75 1.08142 18.7837 1.07117 18.8174C1.05798 18.8599 1.04919 18.9023 1.03894 18.9434C1.03162 18.9756 1.02283 19.0063 1.0155 19.0386C1.00378 19.0942 0.99646 19.1499 0.9906 19.2056C0.987671 19.2261 0.984741 19.2451 0.981812 19.2656C0.965698 19.4224 0.965698 19.5806 0.981812 19.7373C0.983276 19.7461 0.984741 19.7549 0.986206 19.7637C0.99353 19.8311 1.00378 19.8984 1.01697 19.9644C1.02136 19.9834 1.02722 20.0024 1.03162 20.0215C1.0448 20.0771 1.05798 20.1328 1.0741 20.187C1.07996 20.2061 1.08728 20.2251 1.0946 20.2456C1.11218 20.2983 1.13123 20.3525 1.1532 20.4053C1.16052 20.4214 1.16785 20.436 1.17517 20.4521C1.20007 20.5063 1.22498 20.5605 1.25281 20.6133C1.25867 20.6235 1.26599 20.6338 1.27185 20.644C1.30261 20.6997 1.3363 20.7554 1.37146 20.8096C1.37439 20.814 1.37732 20.8184 1.38025 20.8228C1.46082 20.9414 1.5531 21.0542 1.6571 21.1582L18.475 37.9761C18.932 38.4331 19.5326 38.6631 20.1317 38.6631C20.7308 38.6631 21.3314 38.4346 21.7885 37.9761C22.704 37.0605 22.704 35.5767 21.7885 34.6611L8.97107 21.8438H51.6888C52.9838 21.8438 54.0326 20.7949 54.0326 19.5C54.0326 18.2051 52.9838 17.1562 51.6888 17.1562H8.97107L21.787 4.33887C22.7025 3.4248 22.7025 1.94092 21.787 1.02539Z" fill="#333333"/>
</svg>
