<svg width="30" height="30" viewBox="0 0 30 30" fill="none" xmlns="http://www.w3.org/2000/svg">
<path fill-rule="evenodd" clip-rule="evenodd" d="M27.5 15C27.5 21.9035 21.9035 27.5 15 27.5C8.09644 27.5 2.5 21.9035 2.5 15C2.5 8.09644 8.09644 2.5 15 2.5C21.9035 2.5 27.5 8.09644 27.5 15ZM15 22.1875C15.5177 22.1875 15.9375 21.7677 15.9375 21.25V13.75C15.9375 13.2323 15.5177 12.8125 15 12.8125C14.4823 12.8125 14.0625 13.2323 14.0625 13.75V21.25C14.0625 21.7677 14.4823 22.1875 15 22.1875ZM15 8.75C15.6904 8.75 16.25 9.30965 16.25 10C16.25 10.6903 15.6904 11.25 15 11.25C14.3096 11.25 13.75 10.6903 13.75 10C13.75 9.30965 14.3096 8.75 15 8.75Z" fill="#674EFF"/>
</svg>
