<svg width="100" height="76" viewBox="0 0 100 76" fill="none" xmlns="http://www.w3.org/2000/svg">
<g clip-path="url(#clip0_118_131)">
<path d="M100.076 75.1684H0V0.0852661H100.076V75.1684Z" fill="white"/>
<path d="M24.2501 15.7557C26.4502 15.7557 28.2337 13.9722 28.2337 11.7722C28.2337 9.57213 26.4502 7.78864 24.2501 7.78864C22.0501 7.78864 20.2666 9.57213 20.2666 11.7722C20.2666 13.9722 22.0501 15.7557 24.2501 15.7557Z" fill="#E6E6E6"/>
<path d="M33.4503 9.11646C33.2745 9.11677 33.1059 9.18686 32.9816 9.31133C32.8574 9.43581 32.7876 9.6045 32.7876 9.78038C32.7876 9.95626 32.8574 10.1249 32.9816 10.2494C33.1059 10.3739 33.2745 10.444 33.4503 10.4443H81.9244C82.1003 10.444 82.2689 10.3739 82.3931 10.2494C82.5174 10.1249 82.5871 9.95626 82.5871 9.78038C82.5871 9.6045 82.5174 9.43581 82.3931 9.31133C82.2689 9.18686 82.1003 9.11677 81.9244 9.11646H33.4503Z" fill="#E6E6E6"/>
<path d="M33.4505 13.1C33.2744 13.0996 33.1054 13.1692 32.9806 13.2934C32.8558 13.4177 32.7855 13.5864 32.7852 13.7625C32.7848 13.9386 32.8544 14.1076 32.9786 14.2324C33.1029 14.3571 33.2716 14.4274 33.4477 14.4278H64.0935C64.1808 14.428 64.2672 14.4109 64.3479 14.3776C64.4286 14.3443 64.502 14.2954 64.5637 14.2338C64.6255 14.1721 64.6745 14.0989 64.708 14.0182C64.7414 13.9376 64.7586 13.8512 64.7586 13.7639C64.7586 13.6766 64.7414 13.5902 64.708 13.5096C64.6745 13.4289 64.6255 13.3557 64.5637 13.294C64.502 13.2323 64.4286 13.1835 64.3479 13.1502C64.2672 13.1169 64.1808 13.0998 64.0935 13.1H33.4505Z" fill="#E6E6E6"/>
<path d="M100.076 75.1684H0V0.0852661H100.076V75.1684ZM1.1201 74.0483H98.9559V1.20538H1.1201V74.0483Z" fill="#E6E6E6"/>
<path d="M5.59375 22.9825V67.6407H94.4826V22.9825H5.59375ZM94.0553 34.0402H72.3672V23.4099H94.0553V34.0402ZM50.2519 34.0402V23.4099H71.9399V34.0402H50.2519ZM71.9399 34.4676V45.0979H50.2519V34.4676H71.9399ZM49.8245 34.0402H28.1365V23.4099H49.8245V34.0402ZM49.8245 34.4676V45.0979H28.1365V34.4676H49.8245ZM27.7091 45.0979H6.0211V34.4676H27.7091V45.0979ZM27.7091 45.5253V56.1556H6.0211V45.5253H27.7091ZM28.1365 45.5253H49.8245V56.1556H28.1365V45.5253ZM49.8245 56.583V67.2133H28.1365V56.583H49.8245ZM50.2519 56.583H71.9399V67.2133H50.2519V56.583ZM50.2519 56.1556V45.5253H71.9399V56.1556H50.2519ZM72.3672 45.5253H94.0553V56.1556H72.3672V45.5253ZM72.3672 45.0979V34.4676H94.0553V45.0979H72.3672ZM27.7091 23.4099V34.0402H6.0211V23.4099H27.7091ZM6.0211 56.583H27.7091V67.2133H6.0211V56.583ZM72.3672 67.2133V56.583H94.0553V67.2133H72.3672Z" fill="#E4E4E4"/>
<path d="M87.3442 66.5213L78.4996 66.321C77.6149 62.8939 78.0132 59.6309 78.7192 56.6239L87.5637 56.8242C86.6691 59.9856 86.5936 63.3226 87.3442 66.5213Z" fill="#6C63FF"/>
<path d="M80.2349 58.767L80.2396 58.4305L84.8218 58.5942L84.8169 58.9307L80.2349 58.767Z" fill="white"/>
<path d="M80.2153 60.1132L80.22 59.7767L84.8021 59.9406L84.7974 60.2771L80.2153 60.1132Z" fill="white"/>
<path d="M80.1958 61.4593L80.2007 61.1228L84.7828 61.2867L84.7781 61.6232L80.1958 61.4593Z" fill="white"/>
<path d="M80.1768 62.8055L80.1815 62.469L84.7637 62.6329L84.7588 62.9694L80.1768 62.8055Z" fill="white"/>
<path d="M80.1577 64.1517L80.1624 63.8151L84.7447 63.979L84.7398 64.3156L80.1577 64.1517Z" fill="white"/>
<path d="M61.8389 44.7427L61.8436 44.4062L66.4258 44.5701L66.4209 44.9066L61.8389 44.7427Z" fill="white"/>
<path d="M61.8193 46.0889L61.824 45.7523L66.4063 45.9162L66.4014 46.2528L61.8193 46.0889Z" fill="white"/>
<path d="M57.9731 43.9521L57.9778 43.6156L62.5601 43.7795L62.5552 44.116L57.9731 43.9521Z" fill="white"/>
</g>
<defs>
<clipPath id="clip0_118_131">
<rect width="100" height="75.2137" fill="white"/>
</clipPath>
</defs>
</svg>
