<svg width="100" height="102" viewBox="0 0 100 102" fill="none" xmlns="http://www.w3.org/2000/svg">
<g clip-path="url(#clip0_118_54)">
<path d="M98.5608 101.789H1.33605C0.97847 101.789 0.635653 101.646 0.382804 101.394C0.129955 101.141 -0.0122782 100.798 -0.0126953 100.44V39.0057C-0.012295 38.6481 0.129934 38.3053 0.382787 38.0524C0.635639 37.7996 0.978465 37.6573 1.33605 37.6569H98.5608C98.9183 37.6573 99.2612 37.7996 99.514 38.0524C99.7669 38.3053 99.9091 38.6481 99.9095 39.0057V100.44C99.9091 100.798 99.7668 101.141 99.514 101.394C99.2611 101.646 98.9183 101.789 98.5608 101.789Z" fill="#E4E4E4"/>
<path d="M10.2768 45.1016C10.1235 45.1017 9.97658 45.1627 9.86822 45.271C9.75985 45.3794 9.6989 45.5263 9.69873 45.6796V93.7666C9.6989 93.9198 9.75985 94.0667 9.86822 94.1751C9.97658 94.2835 10.1235 94.3444 10.2768 94.3446H89.6193C89.7725 94.3444 89.9194 94.2835 90.0278 94.1751C90.1362 94.0667 90.1971 93.9198 90.1973 93.7666V45.6796C90.1971 45.5263 90.1362 45.3794 90.0278 45.271C89.9194 45.1627 89.7725 45.1017 89.6193 45.1016H10.2768Z" fill="white"/>
<path d="M90.3901 57.4869V54.4397H79.1697V44.9089H76.1226V54.4397H56.1466V44.9089H53.0995V54.4397H22.2891V44.9089H19.2419V54.4397H8.58789V57.4869H19.2419V69.337H8.58789V72.3842H19.2419V85.0808H8.58789V88.1279H35.6628V94.5372H38.71V88.1279H53.0995V94.5372H56.1466V88.1279H90.3901V85.0808H56.1466V72.3842H90.3901V69.337H79.1697V57.4869H90.3901ZM53.0995 57.4869V61.2112H22.2891V57.4869H53.0995ZM22.2891 64.2584H53.0995V69.337H22.2891V64.2584ZM22.2891 85.0808V72.3842H35.6628V85.0808H22.2891ZM53.0995 85.0808H38.71V72.3842H53.0995V85.0808ZM76.1226 69.337H56.1466V57.4869H76.1226V69.337Z" fill="#E6E6E6"/>
<path d="M54.6231 75.1396C56.7735 75.1396 58.5167 73.3964 58.5167 71.246C58.5167 69.0956 56.7735 67.3524 54.6231 67.3524C52.4727 67.3524 50.7295 69.0956 50.7295 71.246C50.7295 73.3964 52.4727 75.1396 54.6231 75.1396Z" fill="#6C63FF"/>
<path d="M55.0897 48.116C68.3547 48.116 79.1081 37.3626 79.1081 24.0977C79.1081 10.8327 68.3547 0.0792847 55.0897 0.0792847C41.8247 0.0792847 31.0713 10.8327 31.0713 24.0977C31.0713 37.3626 41.8247 48.116 55.0897 48.116Z" fill="#6C63FF"/>
<path d="M55.3245 63.142L47.7365 50.1798L40.1484 37.2175L55.1681 37.1272L70.1877 37.0368L62.7561 50.0894L55.3245 63.142Z" fill="#6C63FF"/>
<path d="M55.2825 32.564C60.0418 32.564 63.8999 28.7059 63.8999 23.9466C63.8999 19.1873 60.0418 15.3292 55.2825 15.3292C50.5232 15.3292 46.665 19.1873 46.665 23.9466C46.665 28.7059 50.5232 32.564 55.2825 32.564Z" fill="white"/>
</g>
<defs>
<clipPath id="clip0_118_54">
<rect width="100" height="101.734" fill="white"/>
</clipPath>
</defs>
</svg>
