<svg width="65" height="78" viewBox="0 0 65 78" fill="none" xmlns="http://www.w3.org/2000/svg">
<g clip-path="url(#clip0_118_86)">
<path d="M32.2919 70.4287C49.8658 70.4287 64.1122 56.1823 64.1122 38.6085C64.1122 21.0346 49.8658 6.78821 32.2919 6.78821C14.7181 6.78821 0.47168 21.0346 0.47168 38.6085C0.47168 56.1823 14.7181 70.4287 32.2919 70.4287Z" fill="#E6E6E6"/>
<path d="M59.6721 38.6085C59.6753 42.8808 58.6773 47.0945 56.7581 50.9115C54.8389 54.7285 52.052 58.0426 48.6208 60.5882C48.3914 60.7598 48.1576 60.9271 47.9222 61.0899C43.3339 64.2793 37.8798 65.9887 32.2918 65.9887C26.7039 65.9887 21.2497 64.2793 16.6614 61.0899C16.4261 60.9271 16.1923 60.7598 15.9629 60.5882C12.534 58.0404 9.74885 54.7258 7.82994 50.9093C5.91102 47.0928 4.91162 42.8803 4.91162 38.6085C4.91162 34.3367 5.91102 30.1242 7.82994 26.3077C9.74885 22.4912 12.534 19.1766 15.9629 16.6288C16.1923 16.4572 16.4261 16.2899 16.6614 16.1271C21.2497 12.9377 26.7039 11.2283 32.2918 11.2283C37.8798 11.2283 43.3339 12.9377 47.9222 16.1271C48.1576 16.2899 48.3914 16.4572 48.6208 16.6288C52.052 19.1744 54.8389 22.4885 56.7581 26.3055C58.6773 30.1225 59.6753 34.3362 59.6721 38.6085Z" fill="white"/>
<path d="M32.292 63.6207C46.1059 63.6207 57.3042 52.4223 57.3042 38.6085C57.3042 24.7946 46.1059 13.5963 32.292 13.5963C18.4781 13.5963 7.27979 24.7946 7.27979 38.6085C7.27979 52.4223 18.4781 63.6207 32.292 63.6207Z" fill="#6C63FF"/>
<path opacity="0.2" d="M32.3572 13.6662C31.978 13.6662 31.6012 13.6761 31.2262 13.6928C37.5479 14.2483 43.422 17.1861 47.6586 21.9109C51.8951 26.6358 54.1772 32.7944 54.0426 39.139C53.9079 45.4836 51.3665 51.5398 46.9333 56.0806C42.5001 60.6215 36.5066 63.3073 30.167 63.5941C30.8889 63.6567 31.6191 63.6906 32.3572 63.6906C38.9909 63.6906 45.3528 61.0554 50.0435 56.3647C54.7342 51.674 57.3694 45.3121 57.3694 38.6784C57.3694 32.0448 54.7342 25.6828 50.0435 20.9921C45.3528 16.3014 38.9909 13.6662 32.3572 13.6662Z" fill="black"/>
<path d="M32.3658 11.8203C32.15 11.8206 31.9432 11.9065 31.7906 12.0591C31.638 12.2117 31.5521 12.4185 31.5518 12.6343V16.1863C31.5518 16.4022 31.6375 16.6092 31.7902 16.7619C31.9428 16.9145 32.1499 17.0003 32.3658 17.0003C32.5817 17.0003 32.7887 16.9145 32.9414 16.7619C33.094 16.6092 33.1798 16.4022 33.1798 16.1863V12.6343C33.1794 12.4185 33.0935 12.2117 32.9409 12.0591C32.7884 11.9065 32.5815 11.8206 32.3658 11.8203Z" fill="white"/>
<path d="M48.6211 16.6288C48.3917 16.4571 48.1578 16.2899 47.9225 16.1271C47.7813 16.1179 47.6401 16.1457 47.513 16.2077C47.3858 16.2697 47.277 16.3639 47.1973 16.4808L45.1978 19.4157C45.0763 19.5941 45.0307 19.8134 45.0709 20.0255C45.1112 20.2375 45.234 20.4249 45.4124 20.5464C45.5908 20.6679 45.8102 20.7135 46.0222 20.6733C46.2343 20.633 46.4216 20.5102 46.5431 20.3318L48.5426 17.3969C48.6187 17.2856 48.6657 17.157 48.6794 17.0228C48.6931 16.8887 48.6731 16.7532 48.6211 16.6288Z" fill="white"/>
<path d="M57.7053 30.0111C57.6651 29.9122 57.6058 29.8221 57.5307 29.7461C57.4557 29.6701 57.3665 29.6096 57.2681 29.5681C57.1696 29.5265 57.064 29.5048 56.9572 29.5042C56.8504 29.5035 56.7445 29.5239 56.6456 29.5641L53.354 30.9006C53.1542 30.982 52.9949 31.1394 52.9111 31.3382C52.8273 31.5369 52.8258 31.7609 52.907 31.9607C52.9882 32.1606 53.1455 32.3201 53.3442 32.4041C53.5429 32.4881 53.7668 32.4898 53.9668 32.4087L57.2583 31.0723C57.458 30.9905 57.6172 30.8329 57.7009 30.634C57.7847 30.4351 57.7863 30.2111 57.7053 30.0111Z" fill="white"/>
<path d="M19.3862 19.4157L17.3867 16.4808C17.307 16.3639 17.1982 16.2697 17.0711 16.2077C16.9439 16.1457 16.8027 16.1179 16.6615 16.1271C16.4262 16.2899 16.1923 16.4571 15.9629 16.6288C15.9109 16.7532 15.8909 16.8887 15.9046 17.0228C15.9183 17.157 15.9653 17.2856 16.0414 17.3969L18.0409 20.3318C18.1624 20.5102 18.3497 20.633 18.5618 20.6733C18.7739 20.7135 18.9932 20.6679 19.1716 20.5464C19.35 20.4249 19.4728 20.2375 19.5131 20.0255C19.5533 19.8134 19.5077 19.5941 19.3862 19.4157Z" fill="white"/>
<path d="M11.2301 30.9006L7.9385 29.5641C7.73852 29.4829 7.51448 29.4845 7.31564 29.5684C7.1168 29.6524 6.95946 29.8119 6.87822 30.0119C6.79698 30.2119 6.79849 30.4359 6.88242 30.6348C6.96635 30.8336 7.12583 30.991 7.32578 31.0723L10.6173 32.4087C10.8173 32.4897 11.0412 32.4881 11.2399 32.4041C11.4386 32.3201 11.5959 32.1606 11.6771 31.9607C11.7583 31.7609 11.7568 31.5369 11.673 31.3381C11.5892 31.1393 11.4299 30.982 11.2301 30.9006Z" fill="white"/>
<path d="M32.3658 60.2167C32.15 60.2171 31.9432 60.3029 31.7906 60.4555C31.638 60.6081 31.5521 60.8149 31.5518 61.0307V64.5827C31.5518 64.7986 31.6375 65.0056 31.7902 65.1583C31.9428 65.311 32.1499 65.3967 32.3658 65.3967C32.5817 65.3967 32.7887 65.311 32.9414 65.1583C33.094 65.0056 33.1798 64.7986 33.1798 64.5827V61.0307C33.1794 60.8149 33.0935 60.6081 32.9409 60.4555C32.7884 60.3029 32.5815 60.2171 32.3658 60.2167Z" fill="white"/>
<path d="M48.5426 59.82L46.5431 56.8851C46.483 56.7968 46.406 56.7212 46.3166 56.6626C46.2272 56.604 46.1272 56.5636 46.0222 56.5437C45.9172 56.5237 45.8093 56.5247 45.7047 56.5465C45.6001 56.5682 45.5007 56.6104 45.4124 56.6705C45.3241 56.7307 45.2484 56.8077 45.1898 56.897C45.1313 56.9864 45.0908 57.0865 45.0709 57.1915C45.051 57.2965 45.0519 57.4044 45.0737 57.509C45.0955 57.6136 45.1376 57.7129 45.1978 57.8013L47.1973 60.7361C47.277 60.8531 47.3858 60.9472 47.513 61.0092C47.6401 61.0713 47.7813 61.0991 47.9225 61.0899C48.1578 60.9271 48.3917 60.7598 48.6211 60.5881C48.6731 60.4637 48.6931 60.3283 48.6794 60.1941C48.6657 60.06 48.6187 59.9314 48.5426 59.82Z" fill="white"/>
<path d="M57.2584 46.1447L53.9668 44.8082C53.7668 44.727 53.5428 44.7286 53.344 44.8126C53.1451 44.8965 52.9878 45.056 52.9065 45.256C52.8253 45.456 52.8268 45.68 52.9107 45.8789C52.9947 46.0777 53.1542 46.2351 53.3541 46.3164L56.6456 47.6528C56.8456 47.7338 57.0695 47.7322 57.2682 47.6482C57.4669 47.5642 57.6242 47.4047 57.7054 47.2048C57.7866 47.005 57.7851 46.781 57.7013 46.5822C57.6175 46.3835 57.4582 46.2261 57.2584 46.1447Z" fill="white"/>
<path d="M19.1716 56.6706C18.9932 56.5491 18.7738 56.5035 18.5618 56.5438C18.3498 56.584 18.1624 56.7068 18.0409 56.8852L16.0414 59.82C15.9653 59.9314 15.9183 60.06 15.9046 60.1941C15.8909 60.3283 15.9109 60.4637 15.9629 60.5881C16.1923 60.7598 16.4262 60.9271 16.6615 61.0899C16.8027 61.0991 16.9439 61.0713 17.0711 61.0093C17.1982 60.9472 17.307 60.8531 17.3867 60.7361L19.3862 57.8013C19.4464 57.713 19.4885 57.6136 19.5103 57.509C19.5321 57.4044 19.533 57.2965 19.5131 57.1915C19.4932 57.0865 19.4528 56.9864 19.3942 56.897C19.3356 56.8077 19.2599 56.7307 19.1716 56.6706Z" fill="white"/>
<path d="M11.677 45.2552C11.6368 45.1562 11.5774 45.0662 11.5024 44.9902C11.4274 44.9141 11.3381 44.8536 11.2397 44.8121C11.1413 44.7706 11.0357 44.7489 10.9289 44.7482C10.8221 44.7476 10.7162 44.768 10.6173 44.8082L7.32572 46.1447C7.12592 46.2261 6.96661 46.3834 6.88279 46.5822C6.79897 46.781 6.7975 47.005 6.87871 47.2048C6.95991 47.4047 7.11714 47.5642 7.31585 47.6482C7.51457 47.7322 7.7385 47.7338 7.93845 47.6528L11.23 46.3164C11.4297 46.2346 11.5889 46.077 11.6726 45.8781C11.7564 45.6792 11.758 45.4552 11.677 45.2552Z" fill="white"/>
<path d="M33.4222 38.2046C33.4974 38.6495 33.393 39.1061 33.1319 39.4742C32.8709 39.8422 32.4745 40.0917 32.0297 40.1679L17.5851 42.6249C17.3647 42.6624 17.1392 42.6561 16.9212 42.6064C16.7033 42.5567 16.4973 42.4646 16.315 42.3353C16.1327 42.206 15.9777 42.042 15.8587 41.8528C15.7398 41.6636 15.6592 41.4528 15.6218 41.2324C15.5843 41.0121 15.5906 40.7865 15.6403 40.5686C15.69 40.3507 15.7821 40.1447 15.9114 39.9624C16.0407 39.78 16.2046 39.625 16.3939 39.506C16.5831 39.3871 16.7939 39.3066 17.0143 39.2691L31.4589 36.8121C31.9038 36.7369 32.3604 36.8413 32.7285 37.1024C33.0966 37.3634 33.3461 37.7598 33.4222 38.2046Z" fill="#3F3D56"/>
<path d="M48.6249 54.2081C48.4174 54.4168 48.1356 54.5346 47.8413 54.5358C47.547 54.5369 47.2643 54.4213 47.0552 54.2143L31.5057 38.7868C31.297 38.5794 31.1793 38.2976 31.1782 38.0034C31.1772 37.7092 31.293 37.4266 31.5003 37.2177C31.7075 37.0088 31.9891 36.8908 32.2834 36.8895C32.5776 36.8882 32.8603 37.0038 33.0693 37.2108L48.6188 52.6383C48.8275 52.8458 48.9453 53.1276 48.9465 53.4219C48.9476 53.7162 48.832 53.9989 48.6249 54.2081Z" fill="#3F3D56"/>
<path d="M32.2922 40.5325C33.3548 40.5325 34.2162 39.6711 34.2162 38.6085C34.2162 37.5459 33.3548 36.6844 32.2922 36.6844C31.2296 36.6844 30.3682 37.5459 30.3682 38.6085C30.3682 39.6711 31.2296 40.5325 32.2922 40.5325Z" fill="#CCCCCC"/>
<path d="M19.0396 5.24588C16.0862 9.88905 11.5801 12.9705 6.02289 14.9948C5.91308 15.077 5.78814 15.1368 5.65522 15.1708C5.52229 15.2048 5.38398 15.2122 5.24817 15.1927C5.11237 15.1732 4.98173 15.1272 4.86373 15.0572C4.74572 14.9872 4.64265 14.8947 4.56041 14.7849C1.54179 10.7544 2.22339 4.99412 6.20734 1.9144C7.17051 1.17112 8.27174 0.626571 9.44709 0.312367C10.6224 -0.00183599 11.8485 -0.079437 13.0541 0.0840715C14.2597 0.24758 15.4208 0.64894 16.47 1.26485C17.5192 1.88076 18.4356 2.69895 19.166 3.67192L19.2495 3.7834C19.3317 3.89321 19.3916 4.01815 19.4255 4.15107C19.4595 4.284 19.4669 4.42232 19.4474 4.55812C19.4279 4.69392 19.3819 4.82456 19.3119 4.94256C19.2419 5.06057 19.1494 5.16364 19.0396 5.24588Z" fill="#E6E6E6"/>
<path d="M45.418 3.67192C46.1484 2.69895 47.0648 1.88076 48.114 1.26485C49.1632 0.648938 50.3243 0.247581 51.5299 0.0840721C52.7355 -0.0794364 53.9615 -0.00183762 55.1369 0.312366C56.3122 0.626569 57.4135 1.17112 58.3767 1.91439C62.3606 4.99412 63.0422 10.7544 60.0236 14.7849C59.9413 14.8947 59.8383 14.9872 59.7203 15.0572C59.6023 15.1272 59.4716 15.1732 59.3358 15.1927C59.2 15.2122 59.0617 15.2048 58.9288 15.1708C58.7959 15.1368 58.6709 15.077 58.5611 14.9948C53.4022 13.0197 49.1716 9.6017 45.5444 5.24588C45.3227 5.07978 45.1759 4.83238 45.1366 4.55811C45.0972 4.28384 45.1684 4.00517 45.3345 3.7834L45.418 3.67192Z" fill="#E6E6E6"/>
<path d="M44.1235 66.1764C43.9354 66.2821 43.7968 66.458 43.7382 66.6657C43.6796 66.8733 43.7056 67.0958 43.8107 67.2842L48.5085 75.6793C48.614 75.8676 48.7899 76.0064 48.9976 76.065C49.2054 76.1236 49.4279 76.0973 49.6163 75.9919C49.8046 75.8865 49.9434 75.7106 50.0021 75.5029C50.0608 75.2952 50.0346 75.0726 49.9292 74.8842L45.2314 66.4892C45.1257 66.3011 44.9497 66.1626 44.7421 66.1039C44.5344 66.0453 44.312 66.0713 44.1235 66.1764Z" fill="#E6E6E6"/>
<path d="M19.3527 66.4892L14.6548 74.8842C14.5495 75.0726 14.5232 75.2952 14.5819 75.5029C14.6406 75.7106 14.7794 75.8865 14.9678 75.9919C15.1561 76.0973 15.3787 76.1236 15.5864 76.065C15.7941 76.0064 15.9701 75.8676 16.0755 75.6793L20.7734 67.2843C20.8256 67.191 20.8589 67.0883 20.8715 66.9821C20.884 66.876 20.8756 66.7683 20.8465 66.6655C20.8175 66.5626 20.7684 66.4664 20.7022 66.3825C20.636 66.2985 20.5539 66.2284 20.4606 66.1762C20.3673 66.124 20.2647 66.0907 20.1585 66.0782C20.0523 66.0657 19.9447 66.0742 19.8418 66.1032C19.7389 66.1323 19.6428 66.1813 19.5589 66.2476C19.4749 66.3138 19.4049 66.3959 19.3527 66.4892Z" fill="#E6E6E6"/>
<path d="M49.4604 77.8288C50.8499 77.8288 51.9764 76.7023 51.9764 75.3128C51.9764 73.9232 50.8499 72.7968 49.4604 72.7968C48.0708 72.7968 46.9443 73.9232 46.9443 75.3128C46.9443 76.7023 48.0708 77.8288 49.4604 77.8288Z" fill="#E6E6E6"/>
<path d="M51.2362 13.4483C52.6258 13.4483 53.7523 12.3218 53.7523 10.9323C53.7523 9.54272 52.6258 8.41626 51.2362 8.41626C49.8467 8.41626 48.7202 9.54272 48.7202 10.9323C48.7202 12.3218 49.8467 13.4483 51.2362 13.4483Z" fill="#E6E6E6"/>
<path d="M32.144 7.5282C33.5335 7.5282 34.66 6.40174 34.66 5.01218C34.66 3.62262 33.5335 2.49615 32.144 2.49615C30.7544 2.49615 29.6279 3.62262 29.6279 5.01218C29.6279 6.40174 30.7544 7.5282 32.144 7.5282Z" fill="#E6E6E6"/>
<path d="M13.9398 13.1523C15.3294 13.1523 16.4559 12.0258 16.4559 10.6363C16.4559 9.2467 15.3294 8.12024 13.9398 8.12024C12.5503 8.12024 11.4238 9.2467 11.4238 10.6363C11.4238 12.0258 12.5503 13.1523 13.9398 13.1523Z" fill="#E6E6E6"/>
<path d="M15.5678 77.8288C16.9573 77.8288 18.0838 76.7023 18.0838 75.3128C18.0838 73.9232 16.9573 72.7968 15.5678 72.7968C14.1782 72.7968 13.0518 73.9232 13.0518 75.3128C13.0518 76.7023 14.1782 77.8288 15.5678 77.8288Z" fill="#E6E6E6"/>
<path d="M47.4864 52.793C47.5856 52.9483 47.7176 53.08 47.8732 53.1787C48.0287 53.2775 48.204 53.3409 48.3868 53.3646C48.5695 53.3882 48.7552 53.3715 48.9308 53.3157C49.1064 53.2598 49.2676 53.1661 49.4031 53.0412L53.3511 55.1566L53.1393 52.8387L49.4227 51.1852C49.1978 50.9716 48.9023 50.8478 48.5922 50.8375C48.2822 50.8271 47.9791 50.9309 47.7404 51.1291C47.5017 51.3273 47.3441 51.6061 47.2972 51.9128C47.2504 52.2194 47.3177 52.5326 47.4864 52.793Z" fill="#FFB7B7"/>
</g>
<defs>
<clipPath id="clip0_118_86">
<rect width="65" height="78" fill="white"/>
</clipPath>
</defs>
</svg>
