<svg width="36" height="40" viewBox="0 0 36 40" fill="none" xmlns="http://www.w3.org/2000/svg">
<g clip-path="url(#clip0_98_151)">
<path d="M7.58325 15.8933C8.56538 15.8333 9.77615 15.8333 11.3333 15.8333H24.6666C26.2237 15.8333 27.4345 15.8333 28.4166 15.8933M7.58325 15.8933C6.35759 15.9681 5.48802 16.1365 4.74581 16.5146C3.56979 17.1137 2.61367 18.0698 2.01446 19.2458C1.33325 20.5829 1.33325 22.3329 1.33325 25.8333V28.75C1.33325 32.2504 1.33325 34.0004 2.01446 35.3375C2.61367 36.5135 3.56979 37.4696 4.74581 38.0687C6.08275 38.75 7.83292 38.75 11.3333 38.75H24.6666C28.167 38.75 29.917 38.75 31.2541 38.0687C32.4301 37.4696 33.3862 36.5135 33.9853 35.3375C34.6666 34.0004 34.6666 32.2504 34.6666 28.75V25.8333C34.6666 22.3329 34.6666 20.5829 33.9853 19.2458C33.3862 18.0698 32.4301 17.1137 31.2541 16.5146C30.5118 16.1365 29.6422 15.9681 28.4166 15.8933M7.58325 15.8933V11.6667C7.58325 5.91371 12.247 1.25 17.9999 1.25C23.7528 1.25 28.4166 5.91371 28.4166 11.6667V15.8933" stroke="#674EFF" stroke-width="2" stroke-linecap="round" stroke-linejoin="round"/>
</g>
<defs>
<clipPath id="clip0_98_151">
<rect width="36" height="40" fill="white"/>
</clipPath>
</defs>
</svg>
