<svg width="462" height="563" viewBox="0 0 462 563" fill="none" xmlns="http://www.w3.org/2000/svg">
<line x1="138.158" y1="27.7846" x2="400.158" y2="164.785" stroke="#6F3FF7" stroke-width="5"/>
<line x1="81.8541" y1="500.504" x2="423.854" y2="480.504" stroke="#6F3FF7" stroke-width="5"/>
<line x1="47.5306" y1="463.61" x2="114.531" y2="39.6098" stroke="#6F3FF7" stroke-width="5"/>
<line x1="209.651" y1="252.855" x2="130.651" y2="35.8552" stroke="#6F3FF7" stroke-width="5"/>
<line x1="426.288" y1="472.821" x2="242.288" y2="299.821" stroke="#6F3FF7" stroke-width="5"/>
<line x1="79.9239" y1="474.607" x2="187.924" y2="313.607" stroke="#6F3FF7" stroke-width="5"/>
<line x1="242.97" y1="265.722" x2="399.97" y2="194.722" stroke="#6F3FF7" stroke-width="5"/>
<line x1="439.508" y1="463.196" x2="419.508" y2="209.196" stroke="#6F3FF7" stroke-width="5"/>
<g clip-path="url(#clip0_59_33)">
<path fill-rule="evenodd" clip-rule="evenodd" d="M100 513C100 540.614 77.614 563 50 563C22.3857 563 0 540.614 0 513C0 485.386 22.3857 463 50 463C77.614 463 100 485.386 100 513ZM65 498C65 506.285 58.2845 513 50 513C41.7155 513 35 506.285 35 498C35 489.716 41.7155 483 50 483C58.2845 483 65 489.716 65 498ZM50 555.5C58.92 555.5 67.1985 552.752 74.0345 548.056C77.054 545.982 78.344 542.031 76.589 538.816C72.95 532.152 65.451 528 49.9995 528C34.5484 528 27.0498 532.151 23.4107 538.816C21.6552 542.031 22.9455 545.982 25.9648 548.056C32.8009 552.752 41.0795 555.5 50 555.5Z" fill="#6F3FF7"/>
</g>
<g clip-path="url(#clip1_59_33)">
<path fill-rule="evenodd" clip-rule="evenodd" d="M462 483C462 494.046 453.046 503 442 503C430.954 503 422 494.046 422 483C422 471.954 430.954 463 442 463C453.046 463 462 471.954 462 483ZM448 477C448 480.314 445.314 483 442 483C438.686 483 436 480.314 436 477C436 473.686 438.686 471 442 471C445.314 471 448 473.686 448 477ZM442 500C445.568 500 448.879 498.901 451.614 497.022C452.822 496.193 453.338 494.612 452.636 493.326C451.18 490.661 448.18 489 442 489C435.819 489 432.82 490.66 431.364 493.326C430.662 494.612 431.178 496.193 432.386 497.022C435.12 498.901 438.432 500 442 500Z" fill="#6F3FF7"/>
</g>
<g clip-path="url(#clip2_59_33)">
<path fill-rule="evenodd" clip-rule="evenodd" d="M140 20C140 31.0456 131.046 40 120 40C108.954 40 100 31.0456 100 20C100 8.9543 108.954 0 120 0C131.046 0 140 8.9543 140 20ZM126 14C126 17.3138 123.314 20 120 20C116.686 20 114 17.3138 114 14C114 10.6863 116.686 8 120 8C123.314 8 126 10.6863 126 14ZM120 37C123.568 37 126.879 35.9008 129.614 34.0224C130.822 33.1928 131.338 31.6124 130.636 30.3264C129.18 27.6606 126.18 26 120 26C113.819 26 110.82 27.6604 109.364 30.3264C108.662 31.6124 109.178 33.1926 110.386 34.0222C113.12 35.9006 116.432 37 120 37Z" fill="#6F3FF7"/>
</g>
<g clip-path="url(#clip3_59_33)">
<path fill-rule="evenodd" clip-rule="evenodd" d="M250 285.5C250 306.21 233.21 323 212.5 323C191.789 323 175 306.21 175 285.5C175 264.789 191.789 248 212.5 248C233.21 248 250 264.789 250 285.5ZM223.75 274.25C223.75 280.463 218.713 285.5 212.5 285.5C206.287 285.5 201.25 280.463 201.25 274.25C201.25 268.037 206.287 263 212.5 263C218.713 263 223.75 268.037 223.75 274.25ZM212.5 317.375C219.19 317.375 225.399 315.314 230.526 311.792C232.791 310.236 233.758 307.273 232.442 304.862C229.713 299.864 224.088 296.75 212.5 296.75C200.911 296.75 195.287 299.863 192.558 304.862C191.241 307.273 192.209 310.236 194.474 311.792C199.601 315.314 205.81 317.375 212.5 317.375Z" fill="#6F3FF7"/>
</g>
<path fill-rule="evenodd" clip-rule="evenodd" d="M454 181C454 197.568 440.568 211 424 211C407.431 211 394 197.568 394 181C394 164.431 407.431 151 424 151C440.568 151 454 164.431 454 181ZM433 172C433 176.971 428.971 181 424 181C419.029 181 415 176.971 415 172C415 167.029 419.029 163 424 163C428.971 163 433 167.029 433 172ZM424 206.5C429.352 206.5 434.319 204.851 438.421 202.034C440.232 200.789 441.006 198.419 439.953 196.49C437.77 192.491 433.271 190 424 190C414.729 190 410.23 192.491 408.046 196.49C406.993 198.419 407.767 200.789 409.579 202.033C413.681 204.851 418.648 206.5 424 206.5Z" fill="#6F3FF7"/>
<defs>
<clipPath id="clip0_59_33">
<rect width="100" height="100" fill="white" transform="translate(0 463)"/>
</clipPath>
<clipPath id="clip1_59_33">
<rect width="40" height="40" fill="white" transform="translate(422 463)"/>
</clipPath>
<clipPath id="clip2_59_33">
<rect width="40" height="40" fill="white" transform="translate(100)"/>
</clipPath>
<clipPath id="clip3_59_33">
<rect width="75" height="75" fill="white" transform="translate(175 248)"/>
</clipPath>
</defs>
</svg>
