<svg width="448" height="409" viewBox="0 0 448 409" fill="none" xmlns="http://www.w3.org/2000/svg">
<path d="M71.76 373.28V378.6H63.4V401H57.16V378.6H48.8V373.28H71.76ZM75.3703 401V370.92L81.3303 369.96V380.04C81.7303 379.907 82.237 379.787 82.8503 379.68C83.4903 379.547 84.1036 379.48 84.6903 379.48C86.397 379.48 87.8103 379.72 88.9303 380.2C90.077 380.653 90.9836 381.307 91.6503 382.16C92.3436 383.013 92.8236 384.027 93.0903 385.2C93.3836 386.373 93.5303 387.68 93.5303 389.12V401H87.5703V389.84C87.5703 387.92 87.317 386.56 86.8103 385.76C86.3303 384.96 85.4236 384.56 84.0903 384.56C83.557 384.56 83.0503 384.613 82.5703 384.72C82.117 384.8 81.7036 384.893 81.3303 385V401H75.3703ZM106.965 396.84C107.552 396.84 108.112 396.827 108.645 396.8C109.178 396.773 109.605 396.733 109.925 396.68V392.16C109.685 392.107 109.325 392.053 108.845 392C108.365 391.947 107.925 391.92 107.525 391.92C106.965 391.92 106.432 391.96 105.925 392.04C105.445 392.093 105.018 392.213 104.645 392.4C104.272 392.587 103.978 392.84 103.765 393.16C103.552 393.48 103.445 393.88 103.445 394.36C103.445 395.293 103.752 395.947 104.365 396.32C105.005 396.667 105.872 396.84 106.965 396.84ZM106.485 379.4C108.245 379.4 109.712 379.6 110.885 380C112.058 380.4 112.992 380.973 113.685 381.72C114.405 382.467 114.912 383.373 115.205 384.44C115.498 385.507 115.645 386.693 115.645 388V400.4C114.792 400.587 113.605 400.8 112.085 401.04C110.565 401.307 108.725 401.44 106.565 401.44C105.205 401.44 103.965 401.32 102.845 401.08C101.752 400.84 100.805 400.453 100.005 399.92C99.205 399.36 98.5917 398.64 98.165 397.76C97.7383 396.88 97.525 395.8 97.525 394.52C97.525 393.293 97.765 392.253 98.245 391.4C98.7517 390.547 99.4183 389.867 100.245 389.36C101.072 388.853 102.018 388.493 103.085 388.28C104.152 388.04 105.258 387.92 106.405 387.92C107.178 387.92 107.858 387.96 108.445 388.04C109.058 388.093 109.552 388.173 109.925 388.28V387.72C109.925 386.707 109.618 385.893 109.005 385.28C108.392 384.667 107.325 384.36 105.805 384.36C104.792 384.36 103.792 384.44 102.805 384.6C101.818 384.733 100.965 384.933 100.245 385.2L99.485 380.4C99.8317 380.293 100.258 380.187 100.765 380.08C101.298 379.947 101.872 379.84 102.485 379.76C103.098 379.653 103.738 379.573 104.405 379.52C105.098 379.44 105.792 379.4 106.485 379.4ZM120.834 374.72L126.794 373.76V379.96H133.954V384.92H126.794V392.32C126.794 393.573 127.008 394.573 127.434 395.32C127.888 396.067 128.781 396.44 130.114 396.44C130.754 396.44 131.408 396.387 132.074 396.28C132.768 396.147 133.394 395.973 133.954 395.76L134.794 400.4C134.074 400.693 133.274 400.947 132.394 401.16C131.514 401.373 130.434 401.48 129.154 401.48C127.528 401.48 126.181 401.267 125.114 400.84C124.048 400.387 123.194 399.773 122.554 399C121.914 398.2 121.461 397.24 121.194 396.12C120.954 395 120.834 393.76 120.834 392.4V374.72ZM143.968 370.32C144.021 370.693 144.061 371.08 144.088 371.48C144.114 371.88 144.128 372.173 144.128 372.36C144.128 374.147 143.808 375.853 143.168 377.48C142.528 379.08 141.741 380.44 140.808 381.56L136.608 380.6C137.114 379.453 137.514 378.16 137.808 376.72C138.128 375.28 138.288 373.907 138.288 372.6C138.288 372.547 138.288 372.44 138.288 372.28C138.288 372.093 138.274 371.893 138.248 371.68C138.248 371.44 138.234 371.2 138.208 370.96C138.208 370.72 138.194 370.507 138.168 370.32H143.968ZM151.488 396.72C152.582 396.72 153.355 396.613 153.808 396.4C154.262 396.187 154.488 395.773 154.488 395.16C154.488 394.68 154.195 394.267 153.608 393.92C153.022 393.547 152.128 393.133 150.928 392.68C149.995 392.333 149.142 391.973 148.368 391.6C147.622 391.227 146.982 390.787 146.448 390.28C145.915 389.747 145.502 389.12 145.208 388.4C144.915 387.68 144.768 386.813 144.768 385.8C144.768 383.827 145.502 382.267 146.968 381.12C148.435 379.973 150.448 379.4 153.008 379.4C154.288 379.4 155.515 379.52 156.688 379.76C157.862 379.973 158.795 380.213 159.488 380.48L158.448 385.12C157.755 384.88 156.995 384.667 156.168 384.48C155.368 384.293 154.462 384.2 153.448 384.2C151.582 384.2 150.648 384.72 150.648 385.76C150.648 386 150.688 386.213 150.768 386.4C150.848 386.587 151.008 386.773 151.248 386.96C151.488 387.12 151.808 387.307 152.208 387.52C152.635 387.707 153.168 387.92 153.808 388.16C155.115 388.64 156.195 389.12 157.048 389.6C157.902 390.053 158.568 390.56 159.048 391.12C159.555 391.653 159.902 392.253 160.088 392.92C160.302 393.587 160.408 394.36 160.408 395.24C160.408 397.32 159.622 398.893 158.048 399.96C156.502 401.027 154.302 401.56 151.448 401.56C149.582 401.56 148.022 401.4 146.768 401.08C145.542 400.76 144.688 400.493 144.208 400.28L145.208 395.44C146.222 395.84 147.262 396.16 148.328 396.4C149.395 396.613 150.448 396.72 151.488 396.72ZM182.512 396.84C183.099 396.84 183.659 396.827 184.192 396.8C184.725 396.773 185.152 396.733 185.472 396.68V392.16C185.232 392.107 184.872 392.053 184.392 392C183.912 391.947 183.472 391.92 183.072 391.92C182.512 391.92 181.979 391.96 181.472 392.04C180.992 392.093 180.565 392.213 180.192 392.4C179.819 392.587 179.525 392.84 179.312 393.16C179.099 393.48 178.992 393.88 178.992 394.36C178.992 395.293 179.299 395.947 179.912 396.32C180.552 396.667 181.419 396.84 182.512 396.84ZM182.032 379.4C183.792 379.4 185.259 379.6 186.432 380C187.605 380.4 188.539 380.973 189.232 381.72C189.952 382.467 190.459 383.373 190.752 384.44C191.045 385.507 191.192 386.693 191.192 388V400.4C190.339 400.587 189.152 400.8 187.632 401.04C186.112 401.307 184.272 401.44 182.112 401.44C180.752 401.44 179.512 401.32 178.392 401.08C177.299 400.84 176.352 400.453 175.552 399.92C174.752 399.36 174.139 398.64 173.712 397.76C173.285 396.88 173.072 395.8 173.072 394.52C173.072 393.293 173.312 392.253 173.792 391.4C174.299 390.547 174.965 389.867 175.792 389.36C176.619 388.853 177.565 388.493 178.632 388.28C179.699 388.04 180.805 387.92 181.952 387.92C182.725 387.92 183.405 387.96 183.992 388.04C184.605 388.093 185.099 388.173 185.472 388.28V387.72C185.472 386.707 185.165 385.893 184.552 385.28C183.939 384.667 182.872 384.36 181.352 384.36C180.339 384.36 179.339 384.44 178.352 384.6C177.365 384.733 176.512 384.933 175.792 385.2L175.032 380.4C175.379 380.293 175.805 380.187 176.312 380.08C176.845 379.947 177.419 379.84 178.032 379.76C178.645 379.653 179.285 379.573 179.952 379.52C180.645 379.44 181.339 379.4 182.032 379.4ZM204.981 401.4C203.248 401.373 201.835 401.187 200.741 400.84C199.675 400.493 198.821 400.013 198.181 399.4C197.568 398.76 197.141 398 196.901 397.12C196.688 396.213 196.581 395.2 196.581 394.08V370.92L202.541 369.96V392.88C202.541 393.413 202.581 393.893 202.661 394.32C202.741 394.747 202.888 395.107 203.101 395.4C203.341 395.693 203.675 395.933 204.101 396.12C204.528 396.307 205.101 396.427 205.821 396.48L204.981 401.4ZM217.638 401.4C215.904 401.373 214.491 401.187 213.398 400.84C212.331 400.493 211.478 400.013 210.838 399.4C210.224 398.76 209.798 398 209.558 397.12C209.344 396.213 209.238 395.2 209.238 394.08V370.92L215.198 369.96V392.88C215.198 393.413 215.238 393.893 215.318 394.32C215.398 394.747 215.544 395.107 215.758 395.4C215.998 395.693 216.331 395.933 216.758 396.12C217.184 396.307 217.758 396.427 218.478 396.48L217.638 401.4ZM240.623 369.96C241.743 369.96 242.77 370.08 243.703 370.32C244.636 370.533 245.356 370.747 245.863 370.96L244.703 375.72C244.17 375.48 243.583 375.307 242.943 375.2C242.33 375.067 241.756 375 241.223 375C240.503 375 239.89 375.107 239.383 375.32C238.903 375.507 238.516 375.773 238.223 376.12C237.956 376.467 237.756 376.88 237.623 377.36C237.516 377.84 237.463 378.36 237.463 378.92V379.96H244.823V384.92H237.463V401H231.503V378.84C231.503 376.12 232.263 373.96 233.783 372.36C235.33 370.76 237.61 369.96 240.623 369.96ZM267.746 390.44C267.746 392.093 267.506 393.613 267.026 395C266.546 396.36 265.852 397.533 264.946 398.52C264.039 399.48 262.946 400.227 261.666 400.76C260.412 401.293 258.999 401.56 257.426 401.56C255.879 401.56 254.466 401.293 253.186 400.76C251.932 400.227 250.852 399.48 249.946 398.52C249.039 397.533 248.332 396.36 247.826 395C247.319 393.613 247.066 392.093 247.066 390.44C247.066 388.787 247.319 387.28 247.826 385.92C248.359 384.56 249.079 383.4 249.986 382.44C250.919 381.48 252.012 380.733 253.266 380.2C254.546 379.667 255.932 379.4 257.426 379.4C258.946 379.4 260.332 379.667 261.586 380.2C262.866 380.733 263.959 381.48 264.866 382.44C265.772 383.4 266.479 384.56 266.986 385.92C267.492 387.28 267.746 388.787 267.746 390.44ZM261.666 390.44C261.666 388.6 261.292 387.16 260.546 386.12C259.826 385.053 258.786 384.52 257.426 384.52C256.066 384.52 255.012 385.053 254.266 386.12C253.519 387.16 253.146 388.6 253.146 390.44C253.146 392.28 253.519 393.747 254.266 394.84C255.012 395.907 256.066 396.44 257.426 396.44C258.786 396.44 259.826 395.907 260.546 394.84C261.292 393.747 261.666 392.28 261.666 390.44ZM285.043 385.24C284.509 385.107 283.883 384.973 283.163 384.84C282.443 384.68 281.669 384.6 280.843 384.6C280.469 384.6 280.016 384.64 279.483 384.72C278.976 384.773 278.589 384.84 278.323 384.92V401H272.363V381.08C273.429 380.707 274.683 380.36 276.123 380.04C277.589 379.693 279.216 379.52 281.003 379.52C281.323 379.52 281.709 379.547 282.163 379.6C282.616 379.627 283.069 379.68 283.523 379.76C283.976 379.813 284.429 379.893 284.883 380C285.336 380.08 285.723 380.187 286.043 380.32L285.043 385.24ZM298.847 380.68C299.86 380.387 301.167 380.12 302.767 379.88C304.367 379.613 306.047 379.48 307.807 379.48C309.594 379.48 311.074 379.72 312.247 380.2C313.447 380.653 314.394 381.307 315.087 382.16C315.78 383.013 316.274 384.027 316.567 385.2C316.86 386.373 317.007 387.68 317.007 389.12V401H311.047V389.84C311.047 387.92 310.794 386.56 310.287 385.76C309.78 384.96 308.834 384.56 307.447 384.56C307.02 384.56 306.567 384.587 306.087 384.64C305.607 384.667 305.18 384.707 304.807 384.76V401H298.847V380.68ZM342.082 390.44C342.082 392.093 341.842 393.613 341.362 395C340.882 396.36 340.188 397.533 339.282 398.52C338.375 399.48 337.282 400.227 336.002 400.76C334.748 401.293 333.335 401.56 331.762 401.56C330.215 401.56 328.802 401.293 327.522 400.76C326.268 400.227 325.188 399.48 324.282 398.52C323.375 397.533 322.668 396.36 322.162 395C321.655 393.613 321.402 392.093 321.402 390.44C321.402 388.787 321.655 387.28 322.162 385.92C322.695 384.56 323.415 383.4 324.322 382.44C325.255 381.48 326.348 380.733 327.602 380.2C328.882 379.667 330.268 379.4 331.762 379.4C333.282 379.4 334.668 379.667 335.922 380.2C337.202 380.733 338.295 381.48 339.202 382.44C340.108 383.4 340.815 384.56 341.322 385.92C341.828 387.28 342.082 388.787 342.082 390.44ZM336.002 390.44C336.002 388.6 335.628 387.16 334.882 386.12C334.162 385.053 333.122 384.52 331.762 384.52C330.402 384.52 329.348 385.053 328.602 386.12C327.855 387.16 327.482 388.6 327.482 390.44C327.482 392.28 327.855 393.747 328.602 394.84C329.348 395.907 330.402 396.44 331.762 396.44C333.122 396.44 334.162 395.907 334.882 394.84C335.628 393.747 336.002 392.28 336.002 390.44ZM359.03 388.92C358.496 390.947 357.923 392.96 357.31 394.96C356.723 396.96 356.096 398.973 355.43 401H350.79C350.31 399.88 349.79 398.547 349.23 397C348.67 395.453 348.083 393.773 347.47 391.96C346.883 390.12 346.27 388.187 345.63 386.16C345.016 384.107 344.416 382.04 343.83 379.96H350.11C350.323 380.92 350.55 381.973 350.79 383.12C351.056 384.24 351.323 385.4 351.59 386.6C351.883 387.8 352.176 389.013 352.47 390.24C352.79 391.44 353.11 392.6 353.43 393.72C353.776 392.547 354.11 391.347 354.43 390.12C354.776 388.893 355.096 387.693 355.39 386.52C355.71 385.32 356.003 384.173 356.27 383.08C356.563 381.96 356.816 380.92 357.03 379.96H361.35C361.563 380.92 361.803 381.96 362.07 383.08C362.336 384.173 362.616 385.32 362.91 386.52C363.203 387.693 363.51 388.893 363.83 390.12C364.15 391.347 364.483 392.547 364.83 393.72C365.15 392.6 365.47 391.44 365.79 390.24C366.11 389.013 366.403 387.8 366.67 386.6C366.963 385.4 367.23 384.24 367.47 383.12C367.736 381.973 367.976 380.92 368.19 379.96H374.39C373.803 382.04 373.19 384.107 372.55 386.16C371.936 388.187 371.323 390.12 370.71 391.96C370.123 393.773 369.536 395.453 368.95 397C368.39 398.547 367.87 399.88 367.39 401H362.75C362.083 398.973 361.43 396.96 360.79 394.96C360.15 392.96 359.563 390.947 359.03 388.92ZM383.717 380.44C383.717 382.6 383.637 384.613 383.477 386.48C383.317 388.347 383.104 390.24 382.837 392.16H378.277C378.01 390.24 377.784 388.347 377.597 386.48C377.437 384.613 377.357 382.6 377.357 380.44V373.28H383.717V380.44ZM384.237 397.84C384.237 399.013 383.85 399.92 383.077 400.56C382.33 401.2 381.477 401.52 380.517 401.52C379.557 401.52 378.69 401.2 377.917 400.56C377.17 399.92 376.797 399.013 376.797 397.84C376.797 396.667 377.17 395.76 377.917 395.12C378.69 394.48 379.557 394.16 380.517 394.16C381.477 394.16 382.33 394.48 383.077 395.12C383.85 395.76 384.237 396.667 384.237 397.84Z" fill="black"/>
<g clip-path="url(#clip0_210_24)">
<path d="M409.797 105.903C409.327 106.288 408.856 106.657 408.375 107.021H289.594C288.71 106.657 287.829 106.285 286.952 105.903C274.412 100.454 262.741 93.1993 252.31 84.3694C245.384 78.5109 239.012 72.4624 234.393 66.794C227.948 58.8839 222.013 50.2639 219.252 40.4421C216.498 30.6202 217.321 19.3616 223.474 11.2168C225.38 8.71132 227.722 6.56955 230.389 4.89434C230.832 4.61483 231.279 4.34651 231.738 4.09495C239.118 -0.0417551 248.43 -1.04799 256.739 1.09304C268.637 4.16203 278.525 12.7317 285.58 22.7828C292.635 32.8283 297.215 44.3663 301.728 55.7758C306.308 35.4109 320.177 17.1703 338.912 7.89624C357.641 -1.37781 380.911 -1.266 399.243 8.77948C405.011 11.9594 410.221 16.0566 414.668 20.9101C415.11 21.3853 415.542 21.8716 415.967 22.3635C424.909 32.6997 430.503 45.9372 430.962 59.5883C431.55 77.1749 423.386 94.8397 409.797 105.903Z" fill="#F2F2F2"/>
<path d="M294.343 107.021H292.663C292.641 106.646 292.613 106.277 292.579 105.903C291.992 98.5905 290.763 91.3439 288.906 84.2464C284.646 68.0428 277.369 52.7844 267.455 39.2681C257.57 25.7086 245.109 14.2244 230.781 5.47014C230.676 5.41019 230.586 5.32718 230.519 5.22741C230.451 5.12764 230.406 5.01374 230.389 4.89436C230.362 4.73825 230.379 4.57758 230.44 4.43108C230.501 4.28457 230.602 4.15825 230.731 4.06686C230.861 3.97546 231.014 3.92274 231.172 3.91486C231.331 3.90697 231.489 3.94423 231.627 4.0223C231.665 4.04454 231.703 4.06879 231.739 4.09496C239.856 9.03472 247.391 14.8702 254.202 21.4915C266.386 33.3572 276.21 47.4179 283.156 62.9312C289.283 76.518 293.037 91.0516 294.253 105.903C294.287 106.277 294.315 106.652 294.343 107.021Z" fill="white"/>
<path d="M415.967 22.3635C415.955 22.3698 415.942 22.3736 415.928 22.3747C414.702 22.5983 413.47 22.8331 412.249 23.0847C402.23 25.1391 392.421 28.1126 382.949 31.9674C373.502 35.8167 364.414 40.4934 355.793 45.9427C347.161 51.3892 339.021 57.5767 331.465 64.4349C323.909 71.2833 316.978 78.7887 310.754 86.8626C306.102 92.9119 301.872 99.2736 298.094 105.903C297.881 106.272 297.674 106.646 297.467 107.021H295.547C295.748 106.646 295.955 106.272 296.168 105.903C300.738 97.7801 305.978 90.052 311.834 82.7986C318.31 74.7711 325.489 67.3348 333.285 60.5777C341.031 53.8587 349.345 47.8213 358.134 42.5328C366.959 37.2229 376.237 32.7033 385.861 29.027C395.199 25.4626 404.841 22.7459 414.668 20.9101C414.943 20.8598 415.211 20.8095 415.486 20.7592C416.533 20.5691 416.981 22.1455 415.967 22.3635Z" fill="white"/>
<path d="M110.684 110.344C113.671 104.714 114.164 97.382 110.45 92.2016C108.239 89.118 104.787 87.0937 101.165 85.952C97.5425 84.8103 93.7214 84.4747 89.9332 84.1972C86.1832 83.9225 82.3665 83.7027 78.7034 84.5495C75.0403 85.3962 71.4921 87.4649 69.7076 90.7692C66.693 96.3512 69.4391 103.509 67.225 109.453C65.193 114.907 59.4101 118.096 53.7253 119.383C48.0404 120.67 42.1069 120.533 36.4193 121.808C30.7316 123.082 24.939 126.242 22.8711 131.683C21.3757 135.618 22.1187 140.15 24.0892 143.87C26.0596 147.591 29.1456 150.603 32.4214 153.251C37.3082 157.203 43.0254 160.587 49.3045 160.929C55.9206 161.29 62.3897 158.146 67.1517 153.546C71.9136 148.946 75.1555 143.001 77.7456 136.912C79.3888 133.05 80.9412 128.892 84.2341 126.284C86.6537 124.367 89.7312 123.528 92.7157 122.733L96.0953 121.834C99.1576 121.034 102.024 119.617 104.517 117.67C107.01 115.723 109.078 113.287 110.594 110.512C110.624 110.456 110.654 110.4 110.684 110.344Z" fill="#2F2E41"/>
<path d="M84.0313 295.531H77.1674L73.9014 269.097H84.033L84.0313 295.531Z" fill="#FFB8B8"/>
<path d="M72.2638 293.573H85.5024V301.895H63.9285C63.9285 300.802 64.1441 299.72 64.563 298.71C64.9818 297.7 65.5958 296.783 66.3698 296.01C67.1438 295.237 68.0627 294.624 69.074 294.206C70.0853 293.788 71.1692 293.573 72.2638 293.573Z" fill="#2F2E41"/>
<path d="M141.143 295.531H134.279L131.013 269.097H141.144L141.143 295.531Z" fill="#FFB8B8"/>
<path d="M129.375 293.573H142.614V301.895H121.04C121.04 300.802 121.255 299.72 121.674 298.71C122.093 297.7 122.707 296.783 123.481 296.01C124.255 295.237 125.174 294.624 126.185 294.206C127.197 293.788 128.281 293.573 129.375 293.573Z" fill="#2F2E41"/>
<path d="M97.2269 274.521C97.1311 274.521 97.0354 274.516 96.9402 274.505L69.0131 271.518C68.6422 271.478 68.284 271.36 67.9624 271.171C67.6408 270.983 67.3631 270.728 67.1479 270.424C66.9326 270.12 66.7847 269.773 66.7141 269.407C66.6434 269.042 66.6516 268.665 66.738 268.303L91.4652 174.405C91.581 173.927 91.8283 173.491 92.179 173.147C92.5298 172.802 92.9701 172.561 93.4503 172.453L116.389 166.069C116.849 165.968 117.327 165.992 117.775 166.137C118.223 166.283 118.624 166.545 118.936 166.897C133.684 183.506 144.798 220.323 153.218 266.729C153.281 267.079 153.273 267.439 153.193 267.785C153.112 268.132 152.963 268.459 152.752 268.746C152.541 269.033 152.274 269.275 151.967 269.455C151.66 269.636 151.319 269.753 150.966 269.798L128.083 272.715C127.434 272.799 126.777 272.638 126.241 272.262C125.706 271.887 125.33 271.325 125.188 270.687L114.055 221.132C113.953 220.675 113.696 220.268 113.329 219.978C112.962 219.688 112.506 219.533 112.038 219.538C111.57 219.544 111.118 219.71 110.757 220.008C110.397 220.306 110.15 220.719 110.059 221.178L99.7952 272.412C99.679 273.006 99.3591 273.542 98.8905 273.927C98.4218 274.312 97.8336 274.522 97.2269 274.521Z" fill="#2F2E41"/>
<path d="M92.9789 123.238C100.574 123.238 106.731 117.09 106.731 109.508C106.731 101.925 100.574 95.7776 92.9789 95.7776C85.3838 95.7776 79.2268 101.925 79.2268 109.508C79.2268 117.09 85.3838 123.238 92.9789 123.238Z" fill="#FFB8B8"/>
<path d="M92.5948 174.669C92.0166 174.669 91.4549 174.477 90.997 174.125C90.5391 173.773 90.2108 173.279 90.0632 172.721L81.79 141.69C81.1929 139.461 81.4402 137.089 82.4846 135.03C83.529 132.971 85.2971 131.369 87.4508 130.53C94.1104 127.934 100.455 126.972 106.309 127.667C111.512 128.286 117.93 159.038 117.505 159.694L119.558 165.843C119.675 166.192 119.716 166.561 119.681 166.927C119.645 167.293 119.532 167.647 119.351 167.967C119.169 168.286 118.922 168.564 118.626 168.782C118.329 169.001 117.99 169.154 117.631 169.233L93.1654 174.607C92.978 174.648 92.7867 174.669 92.5948 174.669Z" fill="#CCCCCC"/>
<path d="M100.009 206.403C100.127 205.792 100.109 205.163 99.9574 204.56C99.8054 203.957 99.5227 203.394 99.1294 202.912C98.7361 202.429 98.2416 202.039 97.6809 201.768C97.1201 201.497 96.5066 201.353 95.8837 201.344L91.1173 186.994L86.2456 193.164L91.5188 205.845C91.5738 206.891 92.011 207.88 92.7477 208.625C93.4844 209.37 94.4693 209.82 95.5158 209.889C96.5624 209.958 97.5979 209.641 98.426 208.998C99.2542 208.356 99.8175 207.432 100.009 206.403Z" fill="#FFB8B8"/>
<path d="M161.291 171.916C161.005 171.363 160.602 170.879 160.109 170.499C159.616 170.118 159.046 169.851 158.438 169.714C157.83 169.577 157.2 169.576 156.591 169.709C155.983 169.842 155.411 170.106 154.916 170.484L142.287 162.142L142.275 169.999L154.27 176.715C154.96 177.504 155.916 178.012 156.957 178.143C157.997 178.275 159.05 178.021 159.915 177.429C160.781 176.837 161.399 175.949 161.652 174.933C161.906 173.917 161.777 172.844 161.291 171.916Z" fill="#FFB8B8"/>
<path d="M90.016 199.773C89.4637 199.773 88.9254 199.599 88.4776 199.276C88.0299 198.953 87.6956 198.498 87.5222 197.974L76.3481 174.375C75.8898 172.992 75.6564 171.544 75.6567 170.087L79.0162 139.414C79.0161 137.696 79.6725 136.043 80.8514 134.793C82.0304 133.542 83.6429 132.788 85.36 132.684C87.077 132.58 88.769 133.135 90.0905 134.234C91.412 135.333 92.2634 136.895 92.4709 138.6L87.3311 173.611L95.5331 195.1C95.6629 195.672 95.5967 196.27 95.345 196.8C95.0934 197.33 94.671 197.759 94.1455 198.021L91.1902 199.496C90.8256 199.678 90.4236 199.773 90.016 199.773Z" fill="#CCCCCC"/>
<path d="M149.694 175.014C149.283 175.014 148.877 174.918 148.51 174.732L126.288 163.526C124.985 162.87 123.797 162.009 122.767 160.977L101.077 139.252C99.8632 138.036 99.1596 136.403 99.1104 134.686C99.0612 132.969 99.6702 131.299 100.813 130.015C101.956 128.731 103.546 127.932 105.259 127.779C106.972 127.626 108.679 128.132 110.032 129.193L133.527 155.245L152.152 167.051C152.648 167.364 153.024 167.835 153.221 168.388C153.417 168.94 153.422 169.542 153.234 170.098L152.184 173.226C152.009 173.747 151.675 174.2 151.228 174.52C150.781 174.841 150.245 175.014 149.694 175.014Z" fill="#CCCCCC"/>
<path d="M77.3364 102.409C79.6724 105.46 83.0304 107.57 86.7963 108.352C90.6134 109.14 94.5861 108.571 98.0282 106.745C100.798 105.251 103.014 103.009 105.185 100.801C106.091 99.8798 107.056 98.8172 107.01 97.5603C106.94 95.6129 104.595 94.5482 102.582 94.1235C95.9759 92.7476 89.102 93.5194 82.9669 96.3259C80.2345 97.5931 77.3876 99.8856 77.7979 102.735" fill="#2F2E41"/>
<path d="M438.481 105.903H168.603C166.079 105.906 163.66 106.909 161.876 108.69C160.092 110.471 159.088 112.887 159.084 115.406V219.382C159.088 221.902 160.092 224.317 161.876 226.098C163.66 227.88 166.079 228.882 168.603 228.886H438.481C441.005 228.882 443.424 227.88 445.208 226.098C446.992 224.317 447.996 221.902 448 219.382V115.406C447.996 112.887 446.992 110.471 445.208 108.69C443.424 106.909 441.005 105.906 438.481 105.903ZM446.88 219.382C446.877 221.606 445.992 223.737 444.417 225.309C442.843 226.881 440.708 227.765 438.481 227.768H168.603C166.376 227.765 164.241 226.881 162.667 225.309C161.092 223.737 160.207 221.606 160.204 219.382V115.406C160.207 113.183 161.092 111.052 162.667 109.48C164.241 107.908 166.376 107.023 168.603 107.021H438.481C440.708 107.023 442.843 107.908 444.417 109.48C445.992 111.052 446.877 113.183 446.88 115.406V219.382Z" fill="#3F3D56"/>
<path d="M217.603 199.817C211.18 199.817 204.901 197.915 199.561 194.353C194.22 190.79 190.058 185.726 187.6 179.802C185.142 173.877 184.499 167.358 185.752 161.069C187.005 154.779 190.098 149.002 194.639 144.468C199.181 139.933 204.968 136.845 211.267 135.594C217.567 134.343 224.096 134.985 230.03 137.439C235.964 139.893 241.036 144.049 244.605 149.381C248.173 154.713 250.078 160.982 250.078 167.394C250.068 175.99 246.643 184.231 240.555 190.31C234.467 196.388 226.213 199.807 217.603 199.817ZM217.603 136.089C211.401 136.089 205.339 137.925 200.183 141.365C195.026 144.805 191.008 149.694 188.634 155.414C186.261 161.135 185.64 167.429 186.85 173.501C188.06 179.574 191.046 185.152 195.431 189.53C199.816 193.908 205.403 196.89 211.486 198.097C217.568 199.305 223.872 198.685 229.602 196.316C235.331 193.947 240.228 189.934 243.674 184.786C247.119 179.638 248.958 173.586 248.958 167.394C248.949 159.094 245.642 151.137 239.764 145.269C233.886 139.4 225.916 136.099 217.603 136.089Z" fill="#3F3D56"/>
<path d="M414.397 146.711H285.057C283.249 146.712 281.512 147.411 280.209 148.663C278.907 149.914 278.14 151.621 278.069 153.424C278.06 153.515 278.056 153.607 278.058 153.698C278.061 155.551 278.799 157.327 280.111 158.637C281.423 159.946 283.202 160.683 285.057 160.686H414.397C416.253 160.686 418.034 159.95 419.346 158.639C420.659 157.329 421.396 155.552 421.396 153.698C421.396 151.845 420.659 150.068 419.346 148.757C418.034 147.447 416.253 146.711 414.397 146.711Z" fill="#6C63FF"/>
<path d="M414.397 174.102H285.057C283.249 174.103 281.512 174.803 280.209 176.055C278.907 177.306 278.14 179.012 278.069 180.816C278.06 180.907 278.056 180.999 278.058 181.09C278.061 182.942 278.799 184.718 280.111 186.028C281.423 187.338 283.202 188.075 285.057 188.078H414.397C416.253 188.078 418.034 187.341 419.346 186.031C420.659 184.721 421.396 182.943 421.396 181.09C421.396 179.237 420.659 177.459 419.346 176.149C418.034 174.838 416.253 174.102 414.397 174.102Z" fill="#6C63FF"/>
<path d="M213.98 181.561C213.074 181.562 212.192 181.27 211.467 180.727L211.422 180.693L201.957 173.458C201.519 173.123 201.151 172.705 200.874 172.228C200.598 171.75 200.418 171.223 200.346 170.677C200.273 170.13 200.309 169.575 200.452 169.042C200.594 168.51 200.841 168.01 201.176 167.573C201.512 167.135 201.931 166.768 202.409 166.492C202.887 166.216 203.415 166.036 203.963 165.964C204.51 165.892 205.066 165.928 205.6 166.07C206.133 166.212 206.633 166.458 207.072 166.794L213.202 171.487L227.69 152.623C228.026 152.186 228.445 151.819 228.923 151.543C229.401 151.267 229.929 151.088 230.477 151.016C231.024 150.944 231.58 150.98 232.114 151.122C232.647 151.265 233.147 151.511 233.585 151.846L233.495 151.968L233.588 151.848C234.472 152.526 235.05 153.527 235.196 154.63C235.342 155.734 235.043 156.85 234.366 157.734L217.325 179.922C216.931 180.433 216.424 180.847 215.844 181.131C215.264 181.415 214.626 181.562 213.98 181.561Z" fill="#6C63FF"/>
<path d="M213.887 302.676H0.559915C0.411416 302.676 0.268999 302.617 0.163995 302.512C0.0589904 302.407 0 302.265 0 302.117C0 301.968 0.0589904 301.826 0.163995 301.721C0.268999 301.617 0.411416 301.558 0.559915 301.558H213.887C214.036 301.558 214.178 301.617 214.283 301.721C214.388 301.826 214.447 301.968 214.447 302.117C214.447 302.265 214.388 302.407 214.283 302.512C214.178 302.617 214.036 302.676 213.887 302.676Z" fill="#3F3D56"/>
<path d="M382.566 80.7187C370.869 79.1125 358.99 79.3799 347.378 81.5108C335.799 83.6242 324.621 87.526 314.246 93.076C308.416 96.2039 302.882 99.8543 297.712 103.982C296.868 104.655 298.063 105.835 298.9 105.168C307.971 97.9642 318.138 92.2579 329.016 88.2657C339.809 84.2805 351.153 81.9829 362.647 81.454C369.151 81.1558 375.669 81.451 382.119 82.3359C382.334 82.3872 382.56 82.3552 382.752 82.2465C382.943 82.1378 383.087 81.9604 383.152 81.7502C383.21 81.5358 383.181 81.3073 383.071 81.1142C382.962 80.9211 382.78 80.779 382.566 80.7187Z" fill="white"/>
</g>
<defs>
<clipPath id="clip0_210_24">
<rect width="448" height="302.676" fill="white"/>
</clipPath>
</defs>
</svg>
