<svg width="694" height="539" viewBox="0 0 694 539" fill="none" xmlns="http://www.w3.org/2000/svg">
<path d="M344.49 110.26L366.85 117.62V85.4299H346.56L344.49 110.26Z" fill="#9F616A"/>
<path d="M364.08 94.34C351.775 94.34 341.8 84.3649 341.8 72.06C341.8 59.7551 351.775 49.78 364.08 49.78C376.385 49.78 386.36 59.7551 386.36 72.06C386.36 84.3649 376.385 94.34 364.08 94.34Z" fill="#9F616A"/>
<path d="M357.96 69.85C361.69 69.74 364.14 65.97 365.59 62.53C367.04 59.09 368.53 55.14 371.99 53.72C374.82 52.56 379.81 60.41 382.04 58.32C384.37 56.14 382.1 44.95 379.63 42.94C377.16 40.93 373.78 40.54 370.6 40.39C362.84 40.03 355.03 40.66 347.42 42.25C342.71 43.23 337.87 44.71 334.47 48.11C330.17 52.43 329.07 58.94 328.76 65.03C328.44 71.26 328.8 77.78 331.83 83.23C334.86 88.68 341.2 92.7 347.28 91.31C347.89 88.01 347.27 84.62 347.03 81.26C346.8 77.91 347.04 74.29 349.09 71.62C351.13 68.95 355.51 67.89 357.89 70.26" fill="#2F2E43"/>
<path d="M330.55 77.57C328.32 75.94 325.65 74.57 322.91 74.91C319.95 75.27 317.44 77.71 316.68 80.6C315.92 83.49 316.77 86.67 318.61 89.03C320.44 91.39 323.17 92.95 326.05 93.73C327.72 94.18 329.55 94.37 331.14 93.69C333.48 92.68 334.75 89.69 333.83 87.31" fill="#2F2E43"/>
<path d="M415.81 287.2C417.3 294.52 414.57 301.21 409.73 302.14C404.89 303.07 399.76 297.88 398.28 290.56C397.65 287.64 397.75 284.62 398.57 281.74L380.14 166.99L403.19 162.65L412.09 279.15C413.98 281.51 415.25 284.27 415.81 287.21V287.2Z" fill="#9F616A"/>
<path d="M367.09 102.85H382.82C393.94 104.54 396.96 110.47 399.49 121.43C403.35 138.15 408.28 160.41 407.3 160.74C405.73 161.26 378.95 173.86 365.3 170.98L367.09 102.85Z" fill="#6C63FF"/>
<path d="M351.88 468.36H372.82V498.07H351.88V468.36Z" fill="#9F616A"/>
<path d="M393.21 516.05C395.41 516.05 397.37 516 398.85 515.86C404.41 515.35 409.72 511.24 412.39 508.84C413.59 507.76 413.97 506.04 413.35 504.56C412.9 503.5 412.01 502.7 410.9 502.39L396.2 498.19L372.4 482.13L372.13 482.61C372.03 482.79 369.69 487 368.91 489.84C368.61 490.92 368.69 491.82 369.14 492.52C369.45 493 369.89 493.28 370.24 493.44C369.81 493.89 368.46 494.81 364.3 495.47C358.23 496.43 356.95 490.14 356.9 489.88L356.86 489.67L356.68 489.55C353.79 487.69 352.01 486.84 351.4 487.02C351.02 487.13 350.38 487.33 348.65 504.46C348.48 505 347.27 508.94 348.09 512.71C348.98 516.81 366.9 515.4 370.49 515.08C370.59 515.09 384.01 516.05 393.2 516.05H393.21Z" fill="#2F2E43"/>
<path d="M292.254 445.018L310.022 456.099L294.3 481.308L276.532 470.227L292.254 445.018Z" fill="#9F616A"/>
<path d="M315.85 511.98C318.31 511.98 320.57 511.68 322.18 511.4C323.76 511.12 325 509.86 325.26 508.28C325.44 507.14 325.11 505.99 324.33 505.14L314.08 493.8L302.38 467.58L301.9 467.84C301.72 467.94 297.51 470.27 295.34 472.27C294.51 473.03 294.1 473.84 294.12 474.67C294.13 475.25 294.35 475.71 294.57 476.04C293.97 476.2 292.34 476.26 288.46 474.62C282.8 472.23 285.04 466.21 285.14 465.96L285.22 465.76L285.13 465.57C283.66 462.46 282.61 460.8 281.99 460.63C281.6 460.52 280.96 460.35 270.43 473.98C270 474.34 266.89 477.05 265.59 480.68C264.18 484.63 280.13 492.92 283.34 494.54C283.44 494.62 300.13 506.75 306.99 510.2C309.71 511.57 312.93 511.99 315.86 511.99L315.85 511.98Z" fill="#2F2E43"/>
<path d="M336.46 219.91H395.09L400.41 274.45L377.13 475.97H347.2L359.17 359.58L310.62 464.66L284.02 446.04L321.93 347.94C321.93 347.94 308.39 262.48 319.03 241.19C329.67 219.91 336.46 219.91 336.46 219.91Z" fill="#2F2E43"/>
<path d="M307.29 223.23H400.41L372.47 102.85H331.9L307.29 223.23Z" fill="#6C63FF"/>
<path d="M298.91 287.2C297.42 294.52 300.15 301.21 304.99 302.14C309.83 303.07 314.96 297.88 316.44 290.56C317.07 287.64 316.97 284.62 316.15 281.74L334.58 166.99L311.53 162.65L302.63 279.15C300.74 281.51 299.47 284.27 298.91 287.21V287.2Z" fill="#9F616A"/>
<path d="M347.63 102.85H331.9C320.78 104.54 317.76 110.47 315.23 121.43C311.37 138.15 306.44 160.41 307.42 160.74C308.99 161.26 335.77 173.86 349.42 170.98L347.63 102.85Z" fill="#6C63FF"/>
</svg>
