<svg width="18" height="21" viewBox="0 0 18 21" fill="none" xmlns="http://www.w3.org/2000/svg">
<path d="M8.75 0C11.0706 0 13.2962 1.06743 14.9372 2.96747C16.5781 4.86751 17.5 7.44452 17.5 10.1316C17.5 12.8186 16.5781 15.3956 14.9372 17.2957C13.2962 19.1957 11.0706 20.2632 8.75 20.2632C6.42936 20.2632 4.20376 19.1957 2.56282 17.2957C0.921872 15.3956 0 12.8186 0 10.1316C0 7.44452 0.921872 4.86751 2.56282 2.96747C4.20376 1.06743 6.42936 0 8.75 0ZM8.75 4.34211C8.5913 4.34195 8.43432 4.38012 8.28908 4.45418C8.14384 4.52824 8.01353 4.63655 7.90648 4.77222C7.79944 4.90788 7.71801 5.0679 7.66739 5.24206C7.61677 5.41622 7.59807 5.60069 7.6125 5.78368L8.06875 11.5818C8.08644 11.7768 8.16584 11.9572 8.29164 12.0884C8.41743 12.2195 8.58072 12.2921 8.75 12.2921C8.91928 12.2921 9.08257 12.2195 9.20836 12.0884C9.33416 11.9572 9.41356 11.7768 9.43125 11.5818L9.88625 5.78368C9.90067 5.60081 9.88201 5.41646 9.83146 5.2424C9.78092 5.06834 9.6996 4.90839 9.59269 4.77275C9.48578 4.63711 9.35563 4.52876 9.21053 4.45462C9.06544 4.38047 8.9086 4.34215 8.75 4.34211ZM8.75 15.9211C9.01522 15.9211 9.26957 15.7991 9.45711 15.5819C9.64464 15.3648 9.75 15.0703 9.75 14.7632C9.75 14.4561 9.64464 14.1616 9.45711 13.9444C9.26957 13.7273 9.01522 13.6053 8.75 13.6053C8.48478 13.6053 8.23043 13.7273 8.04289 13.9444C7.85536 14.1616 7.75 14.4561 7.75 14.7632C7.75 15.0703 7.85536 15.3648 8.04289 15.5819C8.23043 15.7991 8.48478 15.9211 8.75 15.9211Z" fill="white"/>
</svg>
