<svg width="25" height="25" viewBox="0 0 25 25" fill="none" xmlns="http://www.w3.org/2000/svg">
<g clip-path="url(#clip0_64_593)">
<path fill-rule="evenodd" clip-rule="evenodd" d="M2.94532 0.798362C3.21871 0.525375 3.54701 0.313609 3.90844 0.177096C4.26987 0.0405832 4.65618 -0.017559 5.04178 0.0065226C5.42738 0.0306042 5.80346 0.13636 6.1451 0.316781C6.48674 0.497202 6.78613 0.748168 7.02344 1.05305L9.82813 4.65617C10.3422 5.31711 10.5234 6.17805 10.3203 6.99055L9.46563 10.4124C9.42175 10.5897 9.42429 10.7752 9.473 10.9512C9.52172 11.1272 9.61497 11.2877 9.74375 11.4171L13.5828 15.2562C13.7124 15.3852 13.8731 15.4786 14.0494 15.5273C14.2257 15.5761 14.4116 15.5785 14.5891 15.5343L18.0094 14.6796C18.4104 14.5799 18.8288 14.5724 19.2331 14.6577C19.6374 14.7429 20.0171 14.9187 20.3438 15.1718L23.9469 17.9749C25.2422 18.9827 25.3609 20.8968 24.2016 22.0546L22.5859 23.6702C21.4297 24.8265 19.7016 25.3343 18.0906 24.7671C13.9667 23.318 10.2227 20.9574 7.1375 17.8609C4.04121 14.7761 1.68055 11.0327 0.231253 6.9093C-0.334372 5.29992 0.173441 3.57024 1.32969 2.41399L2.94532 0.798362Z" fill="#6F3FF7"/>
</g>
<defs>
<clipPath id="clip0_64_593">
<rect width="25" height="25" fill="white"/>
</clipPath>
</defs>
</svg>
