<svg width="130" height="144" viewBox="0 0 130 144" fill="none" xmlns="http://www.w3.org/2000/svg">
<path d="M125.332 143.613H5.33406C4.09643 143.612 2.90989 143.119 2.03475 142.244C1.15962 141.369 0.667347 140.183 0.665955 138.945V4.66811C0.667348 3.43048 1.15962 2.24393 2.03475 1.3688C2.90989 0.493657 4.09643 0.00139326 5.33406 0H125.332C126.57 0.00139326 127.756 0.493657 128.631 1.3688C129.506 2.24393 129.999 3.43048 130 4.66811V138.945C129.999 140.183 129.506 141.369 128.631 142.244C127.756 143.119 126.57 143.612 125.332 143.613ZM5.33406 0.549189C4.24204 0.550425 3.19509 0.984776 2.42291 1.75696C1.65073 2.52913 1.21638 3.57608 1.21514 4.66811V138.945C1.21638 140.037 1.65073 141.084 2.42291 141.856C3.19509 142.628 4.24204 143.063 5.33406 143.064H125.332C126.424 143.063 127.471 142.628 128.243 141.856C129.015 141.084 129.45 140.037 129.451 138.945V4.66811C129.45 3.57608 129.015 2.52913 128.243 1.75696C127.471 0.984776 126.424 0.550425 125.332 0.549189H5.33406Z" fill="#3F3D56"/>
<path d="M129.725 11.4204H0.940552V11.9696H129.725V11.4204Z" fill="#3F3D56"/>
<path d="M7.25621 8.23775C8.46944 8.23775 9.45296 7.25423 9.45296 6.041C9.45296 4.82776 8.46944 3.84424 7.25621 3.84424C6.04297 3.84424 5.05945 4.82776 5.05945 6.041C5.05945 7.25423 6.04297 8.23775 7.25621 8.23775Z" fill="#6C63FF"/>
<path d="M14.1211 8.23775C15.3343 8.23775 16.3178 7.25423 16.3178 6.041C16.3178 4.82776 15.3343 3.84424 14.1211 3.84424C12.9078 3.84424 11.9243 4.82776 11.9243 6.041C11.9243 7.25423 12.9078 8.23775 14.1211 8.23775Z" fill="#6C63FF"/>
<path d="M20.9859 8.23775C22.1992 8.23775 23.1827 7.25423 23.1827 6.041C23.1827 4.82776 22.1992 3.84424 20.9859 3.84424C19.7727 3.84424 18.7892 4.82776 18.7892 6.041C18.7892 7.25423 19.7727 8.23775 20.9859 8.23775Z" fill="#6C63FF"/>
<path d="M108.17 31.5784H22.4962C21.5495 31.5784 20.6415 31.2023 19.972 30.5329C19.3026 29.8634 18.9265 28.9554 18.9265 28.0087C18.9265 27.0619 19.3026 26.154 19.972 25.4845C20.6415 24.8151 21.5495 24.439 22.4962 24.439H108.17C109.116 24.439 110.024 24.8151 110.694 25.4845C111.363 26.154 111.739 27.0619 111.739 28.0087C111.739 28.9554 111.363 29.8634 110.694 30.5329C110.024 31.2023 109.116 31.5784 108.17 31.5784ZM22.4962 24.9882C21.6951 24.9882 20.9268 25.3064 20.3604 25.8729C19.7939 26.4393 19.4757 27.2076 19.4757 28.0087C19.4757 28.8098 19.7939 29.5781 20.3604 30.1445C20.9268 30.711 21.6951 31.0292 22.4962 31.0292H108.17C108.971 31.0292 109.739 30.711 110.306 30.1445C110.872 29.5781 111.19 28.8098 111.19 28.0087C111.19 27.2076 110.872 26.4393 110.306 25.8729C109.739 25.3064 108.971 24.9882 108.17 24.9882H22.4962Z" fill="#3F3D56"/>
<path d="M86.9859 59.7492H47.9935C47.4109 59.7492 46.8521 59.5178 46.4402 59.1058C46.0282 58.6938 45.7968 58.1351 45.7968 57.5525C45.7968 56.9699 46.0282 56.4111 46.4402 55.9991C46.8521 55.5872 47.4109 55.3557 47.9935 55.3557H86.9859C87.5686 55.3557 88.1273 55.5872 88.5393 55.9991C88.9512 56.4111 89.1827 56.9699 89.1827 57.5525C89.1827 58.1351 88.9512 58.6938 88.5393 59.1058C88.1273 59.5178 87.5686 59.7492 86.9859 59.7492Z" fill="#CCCCCC"/>
<path d="M109.503 67.1633H47.9935C47.4109 67.1633 46.8521 66.9318 46.4402 66.5199C46.0282 66.1079 45.7968 65.5491 45.7968 64.9665C45.7968 64.3839 46.0282 63.8252 46.4402 63.4132C46.8521 63.0012 47.4109 62.7698 47.9935 62.7698H109.503C110.085 62.7698 110.644 63.0012 111.056 63.4132C111.468 63.8252 111.699 64.3839 111.699 64.9665C111.699 65.5491 111.468 66.1079 111.056 66.5199C110.644 66.9318 110.085 67.1633 109.503 67.1633Z" fill="#CCCCCC"/>
<path d="M33.3827 67.5752H21.5751C20.8835 67.5744 20.2205 67.2993 19.7314 66.8103C19.2424 66.3212 18.9673 65.6582 18.9665 64.9666V57.5525C18.9673 56.8609 19.2424 56.1978 19.7314 55.7088C20.2205 55.2197 20.8835 54.9446 21.5751 54.9438H33.3827C34.0743 54.9446 34.7374 55.2197 35.2264 55.7088C35.7155 56.1978 35.9906 56.8609 35.9914 57.5525V64.9666C35.9906 65.6582 35.7155 66.3212 35.2264 66.8103C34.7374 67.2993 34.0743 67.5744 33.3827 67.5752ZM21.5751 55.493C21.0291 55.4936 20.5056 55.7108 20.1196 56.0969C19.7335 56.483 19.5163 57.0065 19.5157 57.5525V64.9666C19.5163 65.5126 19.7335 66.036 20.1196 66.4221C20.5056 66.8082 21.0291 67.0254 21.5751 67.026H33.3827C33.9287 67.0254 34.4522 66.8082 34.8383 66.4221C35.2244 66.036 35.4416 65.5126 35.4422 64.9666V57.5525C35.4416 57.0065 35.2244 56.483 34.8383 56.0969C34.4522 55.7108 33.9287 55.4936 33.3827 55.493H21.5751Z" fill="#CCCCCC"/>
<path d="M86.9859 85.8357H47.9935C47.4109 85.8357 46.8521 85.6042 46.4402 85.1922C46.0282 84.7803 45.7968 84.2215 45.7968 83.6389C45.7968 83.0563 46.0282 82.4975 46.4402 82.0856C46.8521 81.6736 47.4109 81.4421 47.9935 81.4421H86.9859C87.5686 81.4421 88.1273 81.6736 88.5393 82.0856C88.9512 82.4975 89.1827 83.0563 89.1827 83.6389C89.1827 84.2215 88.9512 84.7803 88.5393 85.1922C88.1273 85.6042 87.5686 85.8357 86.9859 85.8357Z" fill="#CCCCCC"/>
<path d="M109.503 93.2497H47.9935C47.4109 93.2497 46.8521 93.0183 46.4402 92.6063C46.0282 92.1943 45.7968 91.6356 45.7968 91.053C45.7968 90.4703 46.0282 89.9116 46.4402 89.4996C46.8521 89.0876 47.4109 88.8562 47.9935 88.8562H109.503C110.085 88.8562 110.644 89.0876 111.056 89.4996C111.468 89.9116 111.699 90.4703 111.699 91.053C111.699 91.6356 111.468 92.1943 111.056 92.6063C110.644 93.0183 110.085 93.2497 109.503 93.2497Z" fill="#CCCCCC"/>
<path d="M33.3827 93.6616H21.5751C20.8835 93.6608 20.2205 93.3857 19.7314 92.8967C19.2424 92.4077 18.9673 91.7446 18.9665 91.053V83.6389C18.9673 82.9473 19.2424 82.2842 19.7314 81.7952C20.2205 81.3061 20.8835 81.0311 21.5751 81.0303H33.3827C34.0743 81.0311 34.7374 81.3061 35.2264 81.7952C35.7155 82.2842 35.9906 82.9473 35.9914 83.6389V91.053C35.9906 91.7446 35.7155 92.4077 35.2264 92.8967C34.7374 93.3857 34.0743 93.6608 33.3827 93.6616ZM21.5751 81.5795C21.0291 81.5801 20.5056 81.7972 20.1196 82.1833C19.7335 82.5694 19.5163 83.0929 19.5157 83.6389V91.053C19.5163 91.599 19.7335 92.1225 20.1196 92.5086C20.5056 92.8947 21.0291 93.1118 21.5751 93.1124H33.3827C33.9287 93.1118 34.4522 92.8947 34.8383 92.5086C35.2244 92.1225 35.4416 91.599 35.4422 91.053V83.6389C35.4416 83.0929 35.2244 82.5694 34.8383 82.1833C34.4522 81.7972 33.9287 81.5801 33.3827 81.5795H21.5751Z" fill="#CCCCCC"/>
<path d="M86.9859 111.922H47.9935C47.4109 111.922 46.8521 111.691 46.4402 111.279C46.0282 110.867 45.7968 110.308 45.7968 109.725C45.7968 109.143 46.0282 108.584 46.4402 108.172C46.8521 107.76 47.4109 107.529 47.9935 107.529H86.9859C87.5686 107.529 88.1273 107.76 88.5393 108.172C88.9512 108.584 89.1827 109.143 89.1827 109.725C89.1827 110.308 88.9512 110.867 88.5393 111.279C88.1273 111.691 87.5686 111.922 86.9859 111.922Z" fill="#F2F2F2"/>
<path d="M109.503 119.336H47.9935C47.4109 119.336 46.8521 119.105 46.4402 118.693C46.0282 118.281 45.7968 117.722 45.7968 117.139C45.7968 116.557 46.0282 115.998 46.4402 115.586C46.8521 115.174 47.4109 114.943 47.9935 114.943H109.503C110.085 114.943 110.644 115.174 111.056 115.586C111.468 115.998 111.699 116.557 111.699 117.139C111.699 117.722 111.468 118.281 111.056 118.693C110.644 119.105 110.085 119.336 109.503 119.336Z" fill="#F2F2F2"/>
<path d="M33.3827 119.748H21.5751C20.8835 119.747 20.2205 119.472 19.7314 118.983C19.2424 118.494 18.9673 117.831 18.9665 117.139V109.725C18.9673 109.034 19.2424 108.371 19.7314 107.882C20.2205 107.393 20.8835 107.117 21.5751 107.117H33.3827C34.0743 107.117 34.7374 107.393 35.2264 107.882C35.7155 108.371 35.9906 109.034 35.9914 109.725V117.139C35.9906 117.831 35.7155 118.494 35.2264 118.983C34.7374 119.472 34.0743 119.747 33.3827 119.748Z" fill="#F2F2F2"/>
<path d="M27.0833 59.9492C26.7714 60.0345 26.5833 60.2739 26.5833 60.5001C26.5833 60.7262 26.7714 60.9656 27.0833 61.0509V59.9492Z" fill="#6C63FF"/>
<path d="M27.5833 61.6157V62.7174C27.8953 62.6321 28.0833 62.3927 28.0833 62.1666C28.0833 61.9404 27.8953 61.701 27.5833 61.6157Z" fill="#6C63FF"/>
<path fill-rule="evenodd" clip-rule="evenodd" d="M30.6667 61.3333C30.6667 63.1743 29.1743 64.6667 27.3333 64.6667C25.4924 64.6667 24 63.1743 24 61.3333C24 59.4924 25.4924 58 27.3333 58C29.1743 58 30.6667 59.4924 30.6667 61.3333ZM27.3333 59.0833C27.4714 59.0833 27.5833 59.1953 27.5833 59.3333V59.4389C28.1268 59.5362 28.5833 59.9445 28.5833 60.5C28.5833 60.6381 28.4714 60.75 28.3333 60.75C28.1953 60.75 28.0833 60.6381 28.0833 60.5C28.0833 60.2738 27.8953 60.0345 27.5833 59.9492V61.1056C28.1268 61.2029 28.5833 61.6112 28.5833 62.1667C28.5833 62.7221 28.1268 63.1304 27.5833 63.2278V63.3333C27.5833 63.4714 27.4714 63.5833 27.3333 63.5833C27.1953 63.5833 27.0833 63.4714 27.0833 63.3333V63.2278C26.5399 63.1304 26.0833 62.7221 26.0833 62.1667C26.0833 62.0286 26.1953 61.9167 26.3333 61.9167C26.4714 61.9167 26.5833 62.0286 26.5833 62.1667C26.5833 62.3928 26.7714 62.6322 27.0833 62.7175V61.5611C26.5399 61.4638 26.0833 61.0555 26.0833 60.5C26.0833 59.9445 26.5399 59.5362 27.0833 59.4389V59.3333C27.0833 59.1953 27.1953 59.0833 27.3333 59.0833Z" fill="#6C63FF"/>
<path d="M27.0833 85.9492C26.7714 86.0345 26.5833 86.2739 26.5833 86.5001C26.5833 86.7262 26.7714 86.9656 27.0833 87.0509V85.9492Z" fill="#6C63FF"/>
<path d="M27.5833 87.6157V88.7174C27.8953 88.6321 28.0833 88.3927 28.0833 88.1666C28.0833 87.9404 27.8953 87.701 27.5833 87.6157Z" fill="#6C63FF"/>
<path fill-rule="evenodd" clip-rule="evenodd" d="M30.6667 87.3333C30.6667 89.1743 29.1743 90.6667 27.3333 90.6667C25.4924 90.6667 24 89.1743 24 87.3333C24 85.4924 25.4924 84 27.3333 84C29.1743 84 30.6667 85.4924 30.6667 87.3333ZM27.3333 85.0833C27.4714 85.0833 27.5833 85.1953 27.5833 85.3333V85.4389C28.1268 85.5362 28.5833 85.9445 28.5833 86.5C28.5833 86.6381 28.4714 86.75 28.3333 86.75C28.1953 86.75 28.0833 86.6381 28.0833 86.5C28.0833 86.2738 27.8953 86.0345 27.5833 85.9492V87.1056C28.1268 87.2029 28.5833 87.6112 28.5833 88.1667C28.5833 88.7221 28.1268 89.1304 27.5833 89.2278V89.3333C27.5833 89.4714 27.4714 89.5833 27.3333 89.5833C27.1953 89.5833 27.0833 89.4714 27.0833 89.3333V89.2278C26.5399 89.1304 26.0833 88.7221 26.0833 88.1667C26.0833 88.0286 26.1953 87.9167 26.3333 87.9167C26.4714 87.9167 26.5833 88.0286 26.5833 88.1667C26.5833 88.3928 26.7714 88.6322 27.0833 88.7175V87.5611C26.5399 87.4638 26.0833 87.0555 26.0833 86.5C26.0833 85.9445 26.5399 85.5362 27.0833 85.4389V85.3333C27.0833 85.1953 27.1953 85.0833 27.3333 85.0833Z" fill="#6C63FF"/>
</svg>
