<svg width="247" height="144" viewBox="0 0 247 144" fill="none" xmlns="http://www.w3.org/2000/svg">
<path d="M56.5957 87.0046H44.7881C44.0965 87.0039 43.4334 86.7288 42.9444 86.2397C42.4553 85.7507 42.1802 85.0876 42.1794 84.396V76.9819C42.1802 76.2903 42.4553 75.6273 42.9444 75.1382C43.4334 74.6492 44.0965 74.3741 44.7881 74.3733H56.5957C57.2873 74.3741 57.9503 74.6492 58.4394 75.1382C58.9284 75.6273 59.2035 76.2903 59.2043 76.9819V84.396C59.2035 85.0876 58.9284 85.7507 58.4394 86.2397C57.9503 86.7288 57.2873 87.0039 56.5957 87.0046ZM44.7881 74.9225C44.2421 74.9231 43.7186 75.1403 43.3325 75.5264C42.9464 75.9124 42.7292 76.4359 42.7286 76.9819V84.396C42.7292 84.942 42.9464 85.4655 43.3325 85.8516C43.7186 86.2377 44.2421 86.4548 44.7881 86.4555H56.5957C57.1417 86.4548 57.6652 86.2377 58.0513 85.8516C58.4373 85.4655 58.6545 84.942 58.6551 84.396V76.9819C58.6545 76.4359 58.4373 75.9124 58.0513 75.5264C57.6652 75.1403 57.1417 74.9231 56.5957 74.9225H44.7881Z" fill="#3F3D56"/>
<path d="M43.8639 140.622L46.918 139.895L45.5691 127.77L41.0617 128.842L43.8639 140.622Z" fill="#FFB8B8"/>
<path d="M53.4822 141.33L43.884 143.613L43.0018 139.905L48.8917 138.504C49.3787 138.388 49.8837 138.369 50.378 138.448C50.8722 138.528 51.346 138.704 51.7723 138.966C52.1986 139.228 52.569 139.572 52.8624 139.978C53.1558 140.383 53.3664 140.843 53.4822 141.33Z" fill="#2F2E41"/>
<path d="M40.8662 132.814L34.2332 110.081L42.5219 108.025L47.3844 132.101C47.4201 132.277 47.4168 132.459 47.3747 132.634C47.3327 132.809 47.253 132.973 47.1411 133.113C47.0293 133.254 46.888 133.369 46.7272 133.45C46.5663 133.531 46.3898 133.575 46.21 133.58L42.0891 133.703C42.0767 133.703 42.0644 133.703 42.052 133.703C41.7847 133.703 41.5247 133.617 41.3109 133.456C41.0971 133.296 40.941 133.07 40.8662 132.814Z" fill="#2F2E41"/>
<path d="M24.9512 140.698L28.0904 140.698L29.5833 128.589L24.9501 128.59L24.9512 140.698Z" fill="#FFB8B8"/>
<path d="M34.1449 143.612L24.2788 143.613L24.2785 139.801L30.3327 139.8C31.3437 139.8 32.3133 140.202 33.0282 140.917C33.7431 141.632 34.1448 142.601 34.1449 143.612Z" fill="#2F2E41"/>
<path d="M24.4 135.993C24.2846 135.882 24.1926 135.748 24.1292 135.601C24.0658 135.453 24.0324 135.294 24.0308 135.134L21.1708 112.457C21.1696 112.129 21.298 111.815 21.5278 111.582C21.7577 111.35 22.0704 111.218 22.3974 111.215L28.7813 111.168H28.7904C29.1146 111.169 29.4255 111.297 29.6564 111.525C29.8874 111.752 30.02 112.061 30.0258 112.385L30.3652 134.725C30.3703 135.051 30.2462 135.366 30.0201 135.6C29.7939 135.835 29.4841 135.971 29.1581 135.979L25.2828 136.347C25.2769 136.347 25.2709 136.347 25.2649 136.347C24.9412 136.348 24.6304 136.221 24.4 135.993Z" fill="#2F2E41"/>
<path d="M25.768 60.9349C29.4928 60.9349 32.5124 57.9154 32.5124 54.1906C32.5124 50.4658 29.4928 47.4463 25.768 47.4463C22.0432 47.4463 19.0237 50.4658 19.0237 54.1906C19.0237 57.9154 22.0432 60.9349 25.768 60.9349Z" fill="#FFB8B8"/>
<path d="M16.883 111.272C12.4948 107.843 12.5413 103.843 14.0386 98.5007C14.4604 96.9956 14.9157 95.4702 15.3976 93.8552C17.6369 86.352 20.175 77.8475 19.2114 70.8255C18.9475 68.9022 19.6203 66.8792 21.057 65.2754C22.4939 63.6712 24.4279 62.7824 26.372 62.8326C28.3126 62.8843 30.1997 63.8764 31.5492 65.5545C32.8922 67.2245 33.5331 73.0965 33.7231 73.9381C34.5954 77.8008 35.1218 80.1323 35.4994 83.8517C35.946 88.2488 41.2941 101.396 42.9983 103.6C43.4505 104.183 43.7744 104.854 43.9484 105.57C44.1224 106.286 44.1427 107.031 44.0079 107.756C43.8823 108.445 43.61 109.1 43.2094 109.675C42.8088 110.249 42.2893 110.732 41.6861 111.088C38.9204 112.779 35.8813 113.975 32.7052 114.622C31.3274 114.89 29.9273 115.024 28.5239 115.025C24.1697 115.025 20.0092 113.715 16.883 111.272Z" fill="#6C63FF"/>
<path d="M44.9293 85.8628C44.7547 85.5294 44.509 85.2383 44.2097 85.01C43.9104 84.7818 43.5646 84.6219 43.1969 84.5417C42.8291 84.4616 42.4482 84.463 42.081 84.5459C41.7138 84.6289 41.3693 84.7913 41.0717 85.0218L35.9611 82.1057L33.4315 84.7792L40.7065 88.7959C41.1269 89.2702 41.7066 89.5738 42.3359 89.6492C42.9651 89.7246 43.6002 89.5666 44.1207 89.205C44.6412 88.8435 45.011 88.3036 45.1601 87.6876C45.3091 87.0716 45.227 86.4223 44.9293 85.8628Z" fill="#FFB8B8"/>
<path d="M37.1387 87.8396L27.979 84.962C26.7492 84.5728 25.6683 83.8158 24.8822 82.7931C24.0962 81.7704 23.6427 80.5312 23.5829 79.2427L23.1888 70.3428C23.1666 69.8421 23.2457 69.3422 23.4212 68.8728C23.5968 68.4034 23.8652 67.9742 24.2104 67.6109C24.5556 67.2476 24.9706 66.9577 25.4304 66.7585C25.8903 66.5593 26.3856 66.4549 26.8867 66.4515C27.3879 66.4481 27.8845 66.5459 28.347 66.7389C28.8095 66.9319 29.2283 67.2162 29.5784 67.5748C29.9285 67.9334 30.2027 68.3589 30.3845 68.8259C30.5663 69.2929 30.6521 69.7917 30.6367 70.2926L30.3848 78.481L40.1333 82.4567C40.3055 82.527 40.4595 82.6351 40.5841 82.7731C40.7086 82.9112 40.8004 83.0755 40.8526 83.2539C40.9048 83.4323 40.9161 83.6202 40.8856 83.8036C40.8551 83.987 40.7836 84.1611 40.6765 84.3131L38.519 87.3729C38.3684 87.5873 38.1534 87.7481 37.9052 87.8321C37.657 87.916 37.3885 87.9186 37.1387 87.8396Z" fill="#2F2E41"/>
<path d="M14.8989 62.5831C15.207 60.7348 15.1957 58.8191 15.1847 56.9664C15.1818 56.4635 15.1787 55.9607 15.1818 55.4588C15.1962 53.1265 15.3409 50.6545 16.2944 48.3787C17.3322 45.902 19.254 44.1135 21.4352 43.5946C23.8943 43.009 26.5627 44.3036 27.366 46.4354C27.8971 46.1354 28.4881 45.9571 29.0964 45.9133C29.7047 45.8694 30.3152 45.9612 30.8838 46.1819C31.4524 46.4026 31.9649 46.7467 32.3843 47.1895C32.8037 47.6323 33.1196 48.1626 33.3093 48.7423C33.4989 49.322 33.5574 49.9366 33.4808 50.5416C33.4041 51.1467 33.194 51.7272 32.8658 52.2412C32.5375 52.7553 32.0993 53.19 31.5827 53.5142C31.066 53.8383 30.4839 54.0437 29.8782 54.1156L29.7752 54.1247L28.9716 52.0363C28.967 52.0729 28.9626 52.1099 28.9582 52.1472C28.9071 52.5802 28.8542 53.0279 28.4967 53.2866C28.0503 53.6094 27.4944 54.672 27.6569 55.7485C27.7581 56.2994 27.909 56.8399 28.1078 57.3635C28.3286 57.9384 28.4889 58.5347 28.5862 59.1428C28.6883 59.9223 28.4843 60.711 28.0171 61.3433C27.8786 61.5278 27.704 61.6822 27.5039 61.797C27.3038 61.9118 27.0824 61.9847 26.8532 62.0111L17.795 62.9478L17.39 59.9222L14.8134 63.0956L14.8989 62.5831Z" fill="#2F2E41"/>
<path d="M61.9968 143.775H9.27459C9.20177 143.775 9.13192 143.746 9.08043 143.695C9.02893 143.643 9 143.573 9 143.501C9 143.428 9.02893 143.358 9.08043 143.307C9.13192 143.255 9.20177 143.226 9.27459 143.226H61.9968C62.0696 143.226 62.1394 143.255 62.1909 143.307C62.2424 143.358 62.2714 143.428 62.2714 143.501C62.2714 143.573 62.2424 143.643 62.1909 143.695C62.1394 143.746 62.0696 143.775 61.9968 143.775Z" fill="#CCCCCC"/>
<path d="M50.0833 78.9492C49.7714 79.0345 49.5833 79.2739 49.5833 79.5001C49.5833 79.7262 49.7714 79.9656 50.0833 80.0509V78.9492Z" fill="#6C63FF"/>
<path d="M50.5833 80.6157V81.7174C50.8953 81.6321 51.0833 81.3927 51.0833 81.1666C51.0833 80.9404 50.8953 80.701 50.5833 80.6157Z" fill="#6C63FF"/>
<path fill-rule="evenodd" clip-rule="evenodd" d="M53.6667 80.3333C53.6667 82.1743 52.1743 83.6667 50.3333 83.6667C48.4924 83.6667 47 82.1743 47 80.3333C47 78.4924 48.4924 77 50.3333 77C52.1743 77 53.6667 78.4924 53.6667 80.3333ZM50.3333 78.0833C50.4714 78.0833 50.5833 78.1953 50.5833 78.3333V78.4389C51.1268 78.5362 51.5833 78.9445 51.5833 79.5C51.5833 79.6381 51.4714 79.75 51.3333 79.75C51.1953 79.75 51.0833 79.6381 51.0833 79.5C51.0833 79.2738 50.8953 79.0345 50.5833 78.9492V80.1056C51.1268 80.2029 51.5833 80.6112 51.5833 81.1667C51.5833 81.7221 51.1268 82.1304 50.5833 82.2278V82.3333C50.5833 82.4714 50.4714 82.5833 50.3333 82.5833C50.1953 82.5833 50.0833 82.4714 50.0833 82.3333V82.2278C49.5399 82.1304 49.0833 81.7221 49.0833 81.1667C49.0833 81.0286 49.1953 80.9167 49.3333 80.9167C49.4714 80.9167 49.5833 81.0286 49.5833 81.1667C49.5833 81.3928 49.7714 81.6322 50.0833 81.7175V80.5611C49.5399 80.4638 49.0833 80.0555 49.0833 79.5C49.0833 78.9445 49.5399 78.5362 50.0833 78.4389V78.3333C50.0833 78.1953 50.1953 78.0833 50.3333 78.0833Z" fill="#6C63FF"/>
<path d="M204.332 143.613H84.3341C83.0964 143.612 81.9099 143.119 81.0348 142.244C80.1596 141.369 79.6673 140.182 79.666 138.945V4.66811C79.6673 3.43048 80.1596 2.24393 81.0348 1.3688C81.9099 0.493657 83.0964 0.00139326 84.3341 0H204.332C205.57 0.00139326 206.756 0.493657 207.631 1.3688C208.506 2.24393 208.999 3.43048 209 4.66811V138.945C208.999 140.182 208.506 141.369 207.631 142.244C206.756 143.119 205.57 143.612 204.332 143.613ZM84.3341 0.549189C83.242 0.550425 82.1951 0.984776 81.4229 1.75696C80.6507 2.52913 80.2164 3.57608 80.2151 4.66811V138.945C80.2164 140.037 80.6507 141.084 81.4229 141.856C82.1951 142.628 83.242 143.063 84.3341 143.064H204.332C205.424 143.063 206.471 142.628 207.243 141.856C208.015 141.084 208.45 140.037 208.451 138.945V4.66811C208.45 3.57608 208.015 2.52913 207.243 1.75696C206.471 0.984776 205.424 0.550425 204.332 0.549189H84.3341Z" fill="#3F3D56"/>
<path d="M208.725 11.4204H79.9406V11.9696H208.725V11.4204Z" fill="#3F3D56"/>
<path d="M86.2562 8.23775C87.4694 8.23775 88.453 7.25423 88.453 6.041C88.453 4.82776 87.4694 3.84424 86.2562 3.84424C85.043 3.84424 84.0594 4.82776 84.0594 6.041C84.0594 7.25423 85.043 8.23775 86.2562 8.23775Z" fill="#6C63FF"/>
<path d="M93.1211 8.23775C94.3343 8.23775 95.3178 7.25423 95.3178 6.041C95.3178 4.82776 94.3343 3.84424 93.1211 3.84424C91.9078 3.84424 90.9243 4.82776 90.9243 6.041C90.9243 7.25423 91.9078 8.23775 93.1211 8.23775Z" fill="#6C63FF"/>
<path d="M99.9859 8.23775C101.199 8.23775 102.183 7.25423 102.183 6.041C102.183 4.82776 101.199 3.84424 99.9859 3.84424C98.7727 3.84424 97.7892 4.82776 97.7892 6.041C97.7892 7.25423 98.7727 8.23775 99.9859 8.23775Z" fill="#6C63FF"/>
<path d="M187.17 31.5784H101.496C100.549 31.5784 99.6415 31.2023 98.972 30.5329C98.3026 29.8634 97.9265 28.9554 97.9265 28.0087C97.9265 27.0619 98.3026 26.154 98.972 25.4845C99.6415 24.8151 100.549 24.439 101.496 24.439H187.17C188.116 24.439 189.024 24.8151 189.694 25.4845C190.363 26.154 190.739 27.0619 190.739 28.0087C190.739 28.9554 190.363 29.8634 189.694 30.5329C189.024 31.2023 188.116 31.5784 187.17 31.5784ZM101.496 24.9882C100.695 24.9882 99.9268 25.3064 99.3604 25.8729C98.7939 26.4393 98.4757 27.2076 98.4757 28.0087C98.4757 28.8098 98.7939 29.5781 99.3604 30.1445C99.9268 30.711 100.695 31.0292 101.496 31.0292H187.17C187.971 31.0292 188.739 30.711 189.306 30.1445C189.872 29.5781 190.19 28.8098 190.19 28.0087C190.19 27.2076 189.872 26.4393 189.306 25.8729C188.739 25.3064 187.971 24.9882 187.17 24.9882H101.496Z" fill="#3F3D56"/>
<path d="M165.986 59.7492H126.994C126.411 59.7492 125.852 59.5178 125.44 59.1058C125.028 58.6938 124.797 58.1351 124.797 57.5525C124.797 56.9699 125.028 56.4111 125.44 55.9991C125.852 55.5872 126.411 55.3557 126.994 55.3557H165.986C166.569 55.3557 167.127 55.5872 167.539 55.9991C167.951 56.4111 168.183 56.9699 168.183 57.5525C168.183 58.1351 167.951 58.6938 167.539 59.1058C167.127 59.5178 166.569 59.7492 165.986 59.7492Z" fill="#CCCCCC"/>
<path d="M188.503 67.1633H126.994C126.411 67.1633 125.852 66.9318 125.44 66.5199C125.028 66.1079 124.797 65.5491 124.797 64.9665C124.797 64.3839 125.028 63.8252 125.44 63.4132C125.852 63.0012 126.411 62.7698 126.994 62.7698H188.503C189.085 62.7698 189.644 63.0012 190.056 63.4132C190.468 63.8252 190.699 64.3839 190.699 64.9665C190.699 65.5491 190.468 66.1079 190.056 66.5199C189.644 66.9318 189.085 67.1633 188.503 67.1633Z" fill="#CCCCCC"/>
<path d="M112.383 67.5752H100.575C99.8835 67.5744 99.2205 67.2993 98.7314 66.8103C98.2424 66.3212 97.9673 65.6582 97.9665 64.9666V57.5525C97.9673 56.8609 98.2424 56.1978 98.7314 55.7088C99.2205 55.2197 99.8835 54.9446 100.575 54.9438H112.383C113.074 54.9446 113.737 55.2197 114.226 55.7088C114.715 56.1978 114.991 56.8609 114.991 57.5525V64.9666C114.991 65.6582 114.715 66.3212 114.226 66.8103C113.737 67.2993 113.074 67.5744 112.383 67.5752ZM100.575 55.493C100.029 55.4936 99.5056 55.7108 99.1196 56.0969C98.7335 56.483 98.5163 57.0065 98.5157 57.5525V64.9666C98.5163 65.5126 98.7335 66.036 99.1196 66.4221C99.5056 66.8082 100.029 67.0254 100.575 67.026H112.383C112.929 67.0254 113.452 66.8082 113.838 66.4221C114.224 66.036 114.442 65.5126 114.442 64.9666V57.5525C114.442 57.0065 114.224 56.483 113.838 56.0969C113.452 55.7108 112.929 55.4936 112.383 55.493H100.575Z" fill="#CCCCCC"/>
<path d="M165.986 85.8357H126.994C126.411 85.8357 125.852 85.6042 125.44 85.1922C125.028 84.7803 124.797 84.2215 124.797 83.6389C124.797 83.0563 125.028 82.4975 125.44 82.0856C125.852 81.6736 126.411 81.4421 126.994 81.4421H165.986C166.569 81.4421 167.127 81.6736 167.539 82.0856C167.951 82.4975 168.183 83.0563 168.183 83.6389C168.183 84.2215 167.951 84.7803 167.539 85.1922C167.127 85.6042 166.569 85.8357 165.986 85.8357Z" fill="#CCCCCC"/>
<path d="M188.503 93.2497H126.994C126.411 93.2497 125.852 93.0183 125.44 92.6063C125.028 92.1943 124.797 91.6356 124.797 91.053C124.797 90.4703 125.028 89.9116 125.44 89.4996C125.852 89.0876 126.411 88.8562 126.994 88.8562H188.503C189.085 88.8562 189.644 89.0876 190.056 89.4996C190.468 89.9116 190.699 90.4703 190.699 91.053C190.699 91.6356 190.468 92.1943 190.056 92.6063C189.644 93.0183 189.085 93.2497 188.503 93.2497Z" fill="#CCCCCC"/>
<path d="M112.383 93.6616H100.575C99.8835 93.6608 99.2205 93.3857 98.7314 92.8967C98.2424 92.4077 97.9673 91.7446 97.9665 91.053V83.6389C97.9673 82.9473 98.2424 82.2842 98.7314 81.7952C99.2205 81.3061 99.8835 81.0311 100.575 81.0303H112.383C113.074 81.0311 113.737 81.3061 114.226 81.7952C114.715 82.2842 114.991 82.9473 114.991 83.6389V91.053C114.991 91.7446 114.715 92.4077 114.226 92.8967C113.737 93.3857 113.074 93.6608 112.383 93.6616ZM100.575 81.5795C100.029 81.5801 99.5056 81.7972 99.1196 82.1833C98.7335 82.5694 98.5163 83.0929 98.5157 83.6389V91.053C98.5163 91.599 98.7335 92.1225 99.1196 92.5086C99.5056 92.8947 100.029 93.1118 100.575 93.1124H112.383C112.929 93.1118 113.452 92.8947 113.838 92.5086C114.224 92.1225 114.442 91.599 114.442 91.053V83.6389C114.442 83.0929 114.224 82.5694 113.838 82.1833C113.452 81.7972 112.929 81.5801 112.383 81.5795H100.575Z" fill="#CCCCCC"/>
<path d="M165.986 111.922H126.994C126.411 111.922 125.852 111.691 125.44 111.279C125.028 110.867 124.797 110.308 124.797 109.725C124.797 109.143 125.028 108.584 125.44 108.172C125.852 107.76 126.411 107.529 126.994 107.529H165.986C166.569 107.529 167.127 107.76 167.539 108.172C167.951 108.584 168.183 109.143 168.183 109.725C168.183 110.308 167.951 110.867 167.539 111.279C167.127 111.691 166.569 111.922 165.986 111.922Z" fill="#F2F2F2"/>
<path d="M188.503 119.336H126.994C126.411 119.336 125.852 119.105 125.44 118.693C125.028 118.281 124.797 117.722 124.797 117.139C124.797 116.557 125.028 115.998 125.44 115.586C125.852 115.174 126.411 114.943 126.994 114.943H188.503C189.085 114.943 189.644 115.174 190.056 115.586C190.468 115.998 190.699 116.557 190.699 117.139C190.699 117.722 190.468 118.281 190.056 118.693C189.644 119.105 189.085 119.336 188.503 119.336Z" fill="#F2F2F2"/>
<path d="M112.383 119.748H100.575C99.8835 119.747 99.2205 119.472 98.7314 118.983C98.2424 118.494 97.9673 117.831 97.9665 117.139V109.725C97.9673 109.034 98.2424 108.371 98.7314 107.882C99.2205 107.393 99.8835 107.117 100.575 107.117H112.383C113.074 107.117 113.737 107.393 114.226 107.882C114.715 108.371 114.991 109.034 114.991 109.725V117.139C114.991 117.831 114.715 118.494 114.226 118.983C113.737 119.472 113.074 119.747 112.383 119.748Z" fill="#F2F2F2"/>
<path d="M106.083 59.9492C105.771 60.0345 105.583 60.2739 105.583 60.5001C105.583 60.7262 105.771 60.9656 106.083 61.0509V59.9492Z" fill="#6C63FF"/>
<path d="M106.583 61.6157V62.7174C106.895 62.6321 107.083 62.3927 107.083 62.1666C107.083 61.9404 106.895 61.701 106.583 61.6157Z" fill="#6C63FF"/>
<path fill-rule="evenodd" clip-rule="evenodd" d="M109.667 61.3333C109.667 63.1743 108.174 64.6667 106.333 64.6667C104.492 64.6667 103 63.1743 103 61.3333C103 59.4924 104.492 58 106.333 58C108.174 58 109.667 59.4924 109.667 61.3333ZM106.333 59.0833C106.471 59.0833 106.583 59.1953 106.583 59.3333V59.4389C107.127 59.5362 107.583 59.9445 107.583 60.5C107.583 60.6381 107.471 60.75 107.333 60.75C107.195 60.75 107.083 60.6381 107.083 60.5C107.083 60.2738 106.895 60.0345 106.583 59.9492V61.1056C107.127 61.2029 107.583 61.6112 107.583 62.1667C107.583 62.7221 107.127 63.1304 106.583 63.2278V63.3333C106.583 63.4714 106.471 63.5833 106.333 63.5833C106.195 63.5833 106.083 63.4714 106.083 63.3333V63.2278C105.54 63.1304 105.083 62.7221 105.083 62.1667C105.083 62.0286 105.195 61.9167 105.333 61.9167C105.471 61.9167 105.583 62.0286 105.583 62.1667C105.583 62.3928 105.771 62.6322 106.083 62.7175V61.5611C105.54 61.4638 105.083 61.0555 105.083 60.5C105.083 59.9445 105.54 59.5362 106.083 59.4389V59.3333C106.083 59.1953 106.195 59.0833 106.333 59.0833Z" fill="#6C63FF"/>
<path d="M106.083 85.9492C105.771 86.0345 105.583 86.2739 105.583 86.5001C105.583 86.7262 105.771 86.9656 106.083 87.0509V85.9492Z" fill="#6C63FF"/>
<path d="M106.583 87.6157V88.7174C106.895 88.6321 107.083 88.3927 107.083 88.1666C107.083 87.9404 106.895 87.701 106.583 87.6157Z" fill="#6C63FF"/>
<path fill-rule="evenodd" clip-rule="evenodd" d="M109.667 87.3333C109.667 89.1743 108.174 90.6667 106.333 90.6667C104.492 90.6667 103 89.1743 103 87.3333C103 85.4924 104.492 84 106.333 84C108.174 84 109.667 85.4924 109.667 87.3333ZM106.333 85.0833C106.471 85.0833 106.583 85.1953 106.583 85.3333V85.4389C107.127 85.5362 107.583 85.9445 107.583 86.5C107.583 86.6381 107.471 86.75 107.333 86.75C107.195 86.75 107.083 86.6381 107.083 86.5C107.083 86.2738 106.895 86.0345 106.583 85.9492V87.1056C107.127 87.2029 107.583 87.6112 107.583 88.1667C107.583 88.7221 107.127 89.1304 106.583 89.2278V89.3333C106.583 89.4714 106.471 89.5833 106.333 89.5833C106.195 89.5833 106.083 89.4714 106.083 89.3333V89.2278C105.54 89.1304 105.083 88.7221 105.083 88.1667C105.083 88.0286 105.195 87.9167 105.333 87.9167C105.471 87.9167 105.583 88.0286 105.583 88.1667C105.583 88.3928 105.771 88.6322 106.083 88.7175V87.5611C105.54 87.4638 105.083 87.0555 105.083 86.5C105.083 85.9445 105.54 85.5362 106.083 85.4389V85.3333C106.083 85.1953 106.195 85.0833 106.333 85.0833Z" fill="#6C63FF"/>
</svg>
